<?xml version="1.0" encoding="UTF-8" standalone="no"?>
<!-- Created with Serif DrawPlus 11, 0, 3, 23 (Feb 25, 14:12:55) (http://www.serif.com) -->
<svg version="1.1" xmlns="http://www.w3.org/2000/svg" xmlns:xlink="http://www.w3.org/1999/xlink" width="345.199" height="245.373">
	<g id="dp_group001" transform="matrix(1,0,0,1,-365.82,-451.701)">
		<path id="dp_path002" fill="none" fill-rule="evenodd" stroke="black" stroke-width="1.33333" stroke-dasharray="3.2,3.2" d="M 637.951,542.12 L 519.881,542.12"/>
		<path id="dp_path003" fill="none" fill-rule="evenodd" stroke="black" stroke-width="1.33333" stroke-dasharray="3.2,3.2" d="M 519.881,671.559 L 519.881,542.12"/>
		<g id="dp_group004">
			<g id="dp_group005">
				<path id="dp_path006" fill="#cc0505" fill-rule="evenodd" d="M 520.644,595.533 L 517.977,595.533 L 512.644,595.533 L 519.311,608.867 L 525.977,595.533 Z "/>
				<path id="dp_path007" fill="#cc0505" d="M 517.976,542.413 L 517.976,595.533 L 520.643,595.533 L 520.643,542.413 Z "/>
			</g>
		</g>
		<text id="dp_text001" transform="matrix(1,0,0,1,390.589,600.522)" xml:space="preserve" fill="#2f06cf" font-family="Arial" font-size="21" font-weight="400" font-style="italic" x="0" y="0">f</text>
		<text id="dp_text002" transform="matrix(1,0,0,1,390.589,600.522)" xml:space="preserve" fill="#2f06cf" font-family="Arial" font-size="21" font-weight="400" x="5.69467" y="0">(</text>
		<text id="dp_text003" transform="matrix(1,0,0,1,390.589,600.522)" xml:space="preserve" fill="#2f06cf" font-family="Arial" font-size="21" font-weight="400" font-style="italic" x="12.5387" y="0">x,y</text>
		<text id="dp_text004" transform="matrix(1,0,0,1,390.589,600.522)" xml:space="preserve" fill="#2f06cf" font-family="Arial" font-size="21" font-weight="400" x="38.82" y="0">)</text>
		<text id="dp_text005" transform="matrix(1,0,0,1,390.589,600.522)" xml:space="preserve" fill="#2f06cf" font-family="Arial" font-size="21" font-weight="400" font-style="italic" x="45.664" y="0"> </text>
		<text id="dp_text006" transform="matrix(1,0,0,1,390.589,600.522)" xml:space="preserve" fill="#2f06cf" font-family="Arial" font-size="21" font-weight="400" x="51.3587" y="0">= 0</text>
		<text id="dp_text007" transform="matrix(1,0,0,1,390.589,600.522)" xml:space="preserve" fill="#2f06cf" font-family="Arial" font-size="21" font-weight="400" font-style="italic" x="80.4853" y="0"> </text>
		<text id="dp_text008" transform="matrix(1,0,0,1,494.361,610.483)" xml:space="preserve" fill="#cc0505" font-family="Arial" font-size="21" font-weight="700" x="0" y="0">N</text>
		<text id="dp_text009" transform="matrix(1,0,0,1,494.361,610.483)" xml:space="preserve" fill="#cc0505" font-family="Arial" font-size="21" font-weight="400" font-style="italic" x="14.8387" y="0"> </text>
		<path id="dp_path017" fill="none" fill-rule="evenodd" stroke="#2f06cf" stroke-width="2.66667" d="M 366.832,532.588 C 417.499,596.168 465.765,585.957 542.032,526.337 S 667.973,512.135 710.032,560.249"/>
		<g id="dp_group018">
			<g id="dp_group019">
				<path id="dp_path020" fill="#cc0505" fill-rule="evenodd" d="M 488.873,489.539 L 491.208,488.252 L 495.879,485.677 L 483.605,477.217 L 484.201,492.113 Z "/>
				<path id="dp_path021" fill="#cc0505" d="M 521.123,542.516 L 491.209,488.251 L 488.873,489.539 L 518.787,543.804 Z "/>
			</g>
		</g>
		<path id="dp_path022" fill="#fa8909" fill-rule="evenodd" stroke="none" stroke-width="1.33333" d="M 510.631,532.649 C 516.021,527.855 524.28,528.34 529.075,533.732 C 533.869,539.125 533.384,547.384 527.992,552.177 C 522.601,556.971 514.343,556.487 509.548,551.093 C 504.753,545.7 505.239,537.443 510.631,532.649 Z "/>
		<text id="dp_text010" transform="matrix(1,2.77556e-016,-2.22045e-016,1,512.971,547.892)" xml:space="preserve" fill="black" font-family="Arial" font-size="15" font-weight="400" font-style="italic" x="0" y="0">m </text>
		<text id="dp_text011" transform="matrix(1,0,0,1,468.767,472.234)" xml:space="preserve" fill="#cc0505" font-family="Arial" font-size="21" font-weight="700" x="0" y="0">C</text>
		<text id="dp_text012" transform="matrix(1,0,0,1,468.767,472.234)" xml:space="preserve" fill="#cc0505" font-family="Arial" font-size="21" font-weight="400" font-style="italic" x="14.8373" y="0"> </text>
		<g id="dp_group026">
			<g id="dp_group027">
				<path id="dp_path028" fill="black" fill-rule="evenodd" d="M 534.177,560.924 L 536.139,559.117 L 540.06,555.503 L 526.121,550.217 L 530.256,564.539 Z "/>
				<path id="dp_path029" fill="black" d="M 638.932,670.655 L 536.139,559.116 L 534.179,560.924 L 636.972,672.463 Z "/>
			</g>
		</g>
		<g id="dp_group030">
			<g id="dp_group031">
				<path id="dp_path032" fill="black" fill-rule="evenodd" d="M 637.287,548.787 L 638.62,548.787 L 641.287,548.787 L 637.953,542.12 L 634.62,548.787 Z "/>
				<path id="dp_path033" fill="black" d="M 638.62,671.559 L 638.62,548.787 L 637.287,548.787 L 637.287,671.559 Z "/>
			</g>
		</g>
		<g id="dp_group034">
			<g id="dp_group035">
				<path id="dp_path036" fill="black" fill-rule="evenodd" d="M 525.977,672.227 L 525.977,670.893 L 525.977,668.227 L 519.311,671.56 L 525.977,674.893 Z "/>
				<path id="dp_path037" fill="black" d="M 637.953,670.892 L 525.977,670.893 L 525.977,672.227 L 637.953,672.225 Z "/>
			</g>
		</g>
		<text id="dp_text013" transform="matrix(1,0,0,1,645.02,614.614)" xml:space="preserve" fill="black" font-family="Arial" font-size="21" font-weight="400" font-style="italic" x="0" y="0">y </text>
		<text id="dp_text014" transform="matrix(1,0,0,1,573.769,692.092)" xml:space="preserve" fill="black" font-family="Arial" font-size="21" font-weight="400" font-style="italic" x="0" y="0">x</text>
		<text id="dp_text015" transform="matrix(1,0,0,1,573.769,692.092)" xml:space="preserve" fill="black" font-family="Times New Roman" font-size="16" font-weight="400" x="10.2933" y="0"> </text>
		<g id="dp_group041">
			<g id="dp_group042">
				<path id="dp_path043" fill="black" fill-rule="evenodd" d="M 536.612,531.988 L 535.372,530.419 L 534.46,526.04 L 530.501,535.544 L 540.663,533.885 Z "/>
				<path id="dp_path044" fill="black" fill-rule="evenodd" d="M 600.876,497.635 L 600.871,497.541 L 600.868,497.447 L 600.869,497.353 L 600.872,497.259 L 600.879,497.165 L 600.888,497.071 L 600.9,496.977 L 600.915,496.883 L 600.932,496.789 L 600.952,496.696 L 600.976,496.604 L 601.001,496.511 L 601.029,496.419 L 601.06,496.327 L 601.093,496.235 L 601.131,496.144 L 601.169,496.052 L 601.211,495.963 L 601.255,495.873 L 601.301,495.785 L 601.351,495.697 L 601.403,495.611 L 601.457,495.524 L 601.513,495.439 L 601.572,495.355 L 601.633,495.271 L 601.697,495.188 L 601.764,495.108 L 601.832,495.027 L 601.904,494.948 L 601.977,494.871 L 602.053,494.795 L 602.131,494.719 L 602.211,494.645 L 602.293,494.572 L 602.379,494.501 L 602.465,494.432 L 602.555,494.363 L 602.645,494.296 L 602.739,494.232 L 602.835,494.169 L 602.933,494.108 L 603.033,494.048 L 603.135,493.989 L 603.239,493.935 L 603.345,493.88 L 603.453,493.828 L 603.564,493.779 L 603.675,493.731 L 603.789,493.684 L 603.905,493.641 L 604.023,493.6 L 604.143,493.56 L 604.264,493.523 L 604.388,493.489 L 604.513,493.456 L 604.64,493.427 L 604.769,493.4 L 604.901,493.375 L 605.033,493.353 L 605.168,493.333 L 605.304,493.316 L 605.441,493.303 L 605.581,493.292 L 605.72,493.283 L 605.859,493.277 L 605.996,493.275 L 606.132,493.275 L 606.267,493.279 L 606.399,493.285 L 606.531,493.295 L 606.661,493.307 L 606.789,493.321 L 606.917,493.339 L 607.043,493.36 L 607.167,493.384 L 607.289,493.409 L 607.411,493.439 L 607.531,493.471 L 607.648,493.505 L 607.764,493.541 L 607.879,493.581 L 607.992,493.624 L 608.103,493.669 L 608.212,493.717 L 608.32,493.767 L 608.425,493.82 L 608.529,493.875 L 608.632,493.933 L 608.732,493.993 L 608.831,494.056 L 608.927,494.121 L 609.021,494.188 L 609.115,494.259 L 609.205,494.332 L 609.295,494.407 L 609.38,494.484 L 609.465,494.563 L 609.548,494.645 L 609.628,494.729 L 609.705,494.815 L 609.781,494.904 L 609.856,494.995 L 609.927,495.088 L 609.996,495.183 L 610.064,495.28 L 610.129,495.38 L 610.192,495.481 L 610.252,495.585 L 610.309,495.691 L 610.365,495.799 L 610.419,495.909 L 610.469,496.02 L 610.517,496.135 L 610.563,496.251 L 610.605,496.368 L 610.647,496.488 L 610.685,496.609 L 610.72,496.733 L 610.755,496.859 L 610.784,496.985 L 610.812,497.115 L 610.837,497.245 L 610.86,497.379 L 610.88,497.512 L 610.896,497.648 L 610.911,497.787 L 610.921,497.925 L 610.929,498.065 L 610.936,498.204 L 610.937,498.34 L 610.937,498.476 L 610.933,498.611 L 610.927,498.744 L 610.919,498.875 L 610.907,499.005 L 610.891,499.135 L 610.873,499.261 L 610.852,499.387 L 610.828,499.511 L 610.803,499.633 L 610.773,499.755 L 610.741,499.875 L 610.708,499.993 L 610.671,500.108 L 610.631,500.224 L 610.588,500.336 L 610.543,500.448 L 610.496,500.556 L 610.445,500.664 L 610.392,500.771 L 610.337,500.875 L 610.279,500.977 L 610.219,501.076 L 610.156,501.175 L 610.091,501.272 L 610.024,501.367 L 609.953,501.459 L 609.88,501.549 L 609.807,501.639 L 609.728,501.725 L 609.649,501.809 L 609.568,501.892 L 609.483,501.972 L 609.397,502.051 L 609.308,502.127 L 609.217,502.2 L 609.124,502.272 L 609.029,502.341 L 608.932,502.408 L 608.832,502.473 L 608.731,502.536 L 608.627,502.596 L 608.521,502.653 L 608.413,502.709 L 608.304,502.763 L 608.192,502.813 L 608.077,502.861 L 607.961,502.907 L 607.844,502.951 L 607.724,502.992 L 607.603,503.029 L 607.48,503.065 L 607.355,503.099 L 607.227,503.129 L 607.097,503.156 L 606.967,503.181 L 606.835,503.204 L 606.7,503.224 L 606.564,503.241 L 606.427,503.255 L 606.288,503.267 L 606.148,503.275 L 606.009,503.28 L 605.872,503.283 L 605.737,503.283 L 605.603,503.279 L 605.469,503.273 L 605.337,503.264 L 605.207,503.253 L 605.079,503.239 L 604.951,503.221 L 604.825,503.203 L 604.701,503.18 L 604.579,503.156 L 604.457,503.128 L 604.339,503.099 L 604.221,503.068 L 604.105,503.033 L 603.991,502.997 L 603.877,502.959 L 603.767,502.919 L 603.659,502.875 L 603.551,502.831 L 603.445,502.783 L 603.341,502.735 L 603.24,502.684 L 603.14,502.631 L 603.043,502.576 L 602.947,502.519 L 602.852,502.461 L 602.76,502.401 L 602.671,502.339 L 602.583,502.276 L 602.497,502.211 L 602.413,502.143 L 602.332,502.075 L 602.252,502.005 L 602.175,501.935 L 602.1,501.861 L 602.028,501.788 L 601.957,501.712 L 601.889,501.636 L 601.824,501.559 L 601.76,501.479 L 601.699,501.399 L 601.64,501.319 L 601.584,501.236 L 601.531,501.153 L 601.48,501.069 L 601.431,500.984 L 601.384,500.899 L 601.34,500.811 L 601.3,500.724 L 601.261,500.636 L 601.225,500.547 L 601.192,500.457 L 601.161,500.367 L 601.133,500.276 L 601.108,500.185 L 601.087,500.093 L 601.067,500.001 L 601.051,499.908 L 601.036,499.816 L 601.025,499.723 L 601.017,499.629 Z "/>
				<path id="dp_path045" fill="black" d="M 536.613,531.987 L 536.848,531.799 L 538.368,530.561 L 539.857,529.352 L 540.585,528.765 L 541.295,528.195 L 541.983,527.648 L 542.647,527.125 L 543.847,526.195 L 545.041,525.281 L 546.231,524.385 L 547.417,523.507 L 548.599,522.645 L 549.775,521.803 L 550.947,520.975 L 552.115,520.164 L 553.279,519.372 L 554.436,518.595 L 555.591,517.836 L 556.741,517.092 L 557.887,516.365 L 559.029,515.655 L 560.167,514.96 L 561.299,514.283 L 562.427,513.62 L 563.551,512.973 L 564.671,512.344 L 565.787,511.729 L 566.899,511.131 L 568.005,510.548 L 569.108,509.981 L 570.209,509.428 L 570.755,509.159 L 571.301,508.893 L 571.848,508.629 L 572.392,508.371 L 572.936,508.116 L 573.479,507.865 L 574.021,507.616 L 574.559,507.373 L 575.1,507.135 L 575.639,506.897 L 576.176,506.665 L 576.713,506.436 L 577.249,506.212 L 577.783,505.989 L 578.316,505.772 L 578.848,505.557 L 579.38,505.347 L 579.911,505.14 L 580.439,504.936 L 580.967,504.737 L 581.496,504.541 L 582.021,504.348 L 582.547,504.16 L 583.071,503.975 L 583.596,503.793 L 584.117,503.615 L 584.637,503.441 L 585.157,503.271 L 585.679,503.103 L 586.199,502.937 L 586.715,502.776 L 587.229,502.62 L 587.745,502.467 L 588.261,502.316 L 588.775,502.169 L 589.288,502.025 L 589.8,501.885 L 590.311,501.749 L 590.82,501.616 L 591.328,501.487 L 591.835,501.36 L 592.343,501.237 L 592.849,501.117 L 593.355,501.001 L 593.857,500.888 L 594.361,500.779 L 594.864,500.672 L 595.365,500.569 L 595.865,500.468 L 596.363,500.371 L 596.863,500.279 L 597.361,500.188 L 597.856,500.101 L 598.352,500.017 L 598.848,499.936 L 599.341,499.86 L 599.836,499.784 L 600.325,499.713 L 600.787,499.651 L 601.019,499.635 L 600.877,497.64 L 600.581,497.661 L 600.048,497.735 L 599.543,497.808 L 599.04,497.884 L 598.533,497.963 L 598.027,498.047 L 597.52,498.131 L 597.009,498.22 L 596.503,498.313 L 595.992,498.408 L 595.479,498.508 L 594.968,498.609 L 594.456,498.715 L 593.943,498.824 L 593.428,498.936 L 592.912,499.052 L 592.396,499.171 L 591.879,499.293 L 591.36,499.419 L 590.84,499.548 L 590.321,499.68 L 589.799,499.816 L 589.277,499.957 L 588.755,500.1 L 588.231,500.247 L 587.707,500.396 L 587.183,500.549 L 586.656,500.705 L 586.128,500.867 L 585.599,501.031 L 585.071,501.199 L 584.541,501.369 L 584.011,501.543 L 583.477,501.721 L 582.945,501.903 L 582.412,502.089 L 581.877,502.277 L 581.341,502.471 L 580.805,502.667 L 580.268,502.865 L 579.729,503.069 L 579.188,503.276 L 578.649,503.488 L 578.109,503.701 L 577.567,503.919 L 577.023,504.141 L 576.479,504.367 L 575.935,504.596 L 575.389,504.828 L 574.841,505.065 L 574.295,505.305 L 573.745,505.549 L 573.195,505.797 L 572.644,506.049 L 572.093,506.305 L 571.541,506.563 L 570.987,506.827 L 570.432,507.093 L 569.877,507.364 L 569.319,507.639 L 568.204,508.2 L 567.083,508.775 L 565.96,509.368 L 564.832,509.975 L 563.7,510.597 L 562.564,511.237 L 561.424,511.892 L 560.28,512.563 L 559.132,513.251 L 557.981,513.953 L 556.825,514.672 L 555.664,515.409 L 554.5,516.161 L 553.332,516.931 L 552.159,517.716 L 550.984,518.519 L 549.803,519.337 L 548.617,520.173 L 547.428,521.027 L 546.233,521.896 L 545.036,522.785 L 543.833,523.689 L 542.628,524.611 L 541.417,525.549 L 540.743,526.08 L 540.047,526.635 L 539.332,527.208 L 538.601,527.797 L 537.107,529.012 L 535.597,530.241 L 535.371,530.419 Z "/>
			</g>
		</g>
		<text id="dp_text016" transform="matrix(1,0,0,1,564.713,524.512)" xml:space="preserve" fill="black" font-family="Arial" font-size="21" font-weight="400" font-style="italic" x="0" y="0">s </text>
		<text id="dp_text017" transform="matrix(0.707107,0.707107,-0.707107,0.707107,563.733,575.926)" xml:space="preserve" fill="black" font-family="Arial" font-size="21" font-weight="700" x="0" y="0">r </text>
		<text id="dp_text018" transform="matrix(0.707107,0.707107,-0.707107,0.707107,563.733,575.926)" xml:space="preserve" fill="black" font-family="Arial" font-size="21" font-weight="400" x="13.6893" y="0">= (</text>
		<text id="dp_text019" transform="matrix(0.707107,0.707107,-0.707107,0.707107,563.733,575.926)" xml:space="preserve" fill="black" font-family="Arial" font-size="21" font-weight="400" font-style="italic" x="38.2173" y="0">x</text>
		<text id="dp_text020" transform="matrix(0.707107,0.707107,-0.707107,0.707107,563.733,575.926)" xml:space="preserve" fill="black" font-family="Arial" font-size="21" font-weight="400" x="48.5107" y="0">,</text>
		<text id="dp_text021" transform="matrix(0.707107,0.707107,-0.707107,0.707107,563.733,575.926)" xml:space="preserve" fill="black" font-family="Arial" font-size="21" font-weight="400" font-style="italic" x="54.204" y="0">y</text>
		<text id="dp_text022" transform="matrix(0.707107,0.707107,-0.707107,0.707107,563.733,575.926)" xml:space="preserve" fill="black" font-family="Arial" font-size="21" font-weight="400" x="64.4973" y="0">)</text>
		<text id="dp_text023" transform="matrix(0.707107,0.707107,-0.707107,0.707107,563.733,575.926)" xml:space="preserve" fill="black" font-family="Arial" font-size="21" font-weight="700" x="71.3413" y="0"> </text>
		<g id="dp_group054">
			<g id="dp_group055">
				<path id="dp_path056" fill="black" fill-rule="evenodd" d="M 549.395,496.669 L 548.624,495.581 L 548.169,492.635 L 545.203,498.824 L 552.025,498.075 Z "/>
				<path id="dp_path057" fill="black" d="M 549.395,496.669 L 550.097,496.171 L 550.799,495.681 L 551.501,495.2 L 552.205,494.724 L 551.459,493.62 L 550.752,494.099 L 550.041,494.585 L 549.332,495.08 L 548.624,495.581 Z M 555.011,492.904 L 555.715,492.465 L 556.417,492.036 L 557.121,491.615 L 557.828,491.2 L 557.151,490.051 L 556.441,490.471 L 555.729,490.897 L 555.016,491.332 L 554.307,491.773 Z M 560.637,489.62 L 561.343,489.24 L 562.047,488.871 L 562.752,488.509 L 563.46,488.155 L 563.16,487.559 L 563.16,488.225 L 563.161,488.225 L 563.161,486.892 L 563.003,486.892 L 562.149,487.323 L 561.433,487.689 L 560.719,488.064 L 560.008,488.444 Z M 566.324,486.792 L 566.983,486.496 L 567.689,486.187 L 568.395,485.885 L 569.101,485.591 L 569.237,485.537 L 568.739,484.3 L 568.597,484.359 L 567.877,484.659 L 567.161,484.965 L 566.444,485.277 L 565.777,485.576 Z M 572.199,484.393 L 572.639,484.233 L 573.345,483.984 L 574.053,483.744 L 574.763,483.509 L 575.476,483.283 L 575.071,482.013 L 574.352,482.243 L 573.632,482.48 L 572.911,482.725 L 572.191,482.98 L 571.745,483.14 Z M 578.517,482.4 L 579.021,482.265 L 579.732,482.085 L 580.444,481.912 L 581.156,481.745 L 581.872,481.587 L 581.581,480.285 L 580.86,480.447 L 580.135,480.616 L 579.412,480.792 L 578.688,480.977 L 578.176,481.112 Z M 584.977,480.988 L 585.432,480.911 L 586.145,480.799 L 586.861,480.695 L 587.576,480.596 L 588.295,480.507 L 588.129,479.184 L 587.403,479.276 L 586.675,479.375 L 585.948,479.481 L 585.219,479.596 L 584.756,479.673 Z M 591.444,480.204 L 591.875,480.172 L 592.592,480.128 L 593.311,480.092 L 594.031,480.063 L 594.755,480.043 L 594.715,478.709 L 593.985,478.732 L 593.252,478.761 L 592.52,478.797 L 591.787,478.844 L 591.351,478.873 Z "/>
			</g>
		</g>
		<g id="dp_group058">
			<g id="dp_group059">
				<path id="dp_path060" fill="black" fill-rule="evenodd" d="M 675.345,493.593 L 674.639,494.724 L 672.095,496.277 L 678.949,496.632 L 675.629,490.625 Z "/>
				<path id="dp_path061" fill="black" d="M 627.412,480.043 L 628.133,480.028 L 628.851,480.023 L 629.571,480.024 L 630.291,480.033 L 630.585,480.041 L 630.615,478.708 L 630.312,478.703 L 629.581,478.693 L 628.848,478.689 L 628.117,478.697 L 627.388,478.709 Z M 633.891,480.196 L 634.617,480.251 L 635.34,480.313 L 636.064,480.384 L 636.787,480.461 L 637.047,480.493 L 637.207,479.171 L 636.936,479.139 L 636.197,479.059 L 635.46,478.988 L 634.724,478.923 L 633.992,478.865 Z M 640.413,480.968 L 641.145,481.092 L 641.873,481.224 L 642.603,481.363 L 643.333,481.511 L 643.535,481.553 L 643.807,480.249 L 643.6,480.207 L 642.859,480.056 L 642.116,479.915 L 641.375,479.78 L 640.637,479.653 Z M 646.624,482.271 L 646.991,482.363 L 647.723,482.556 L 648.459,482.757 L 649.193,482.967 L 649.932,483.185 L 650.308,481.905 L 649.564,481.687 L 648.816,481.475 L 648.069,481.271 L 647.324,481.072 L 646.949,480.977 Z M 652.948,484.152 L 653.619,484.384 L 654.359,484.648 L 655.1,484.919 L 655.843,485.197 L 655.937,485.235 L 656.415,483.989 L 656.315,483.952 L 655.561,483.671 L 654.809,483.395 L 654.059,483.128 L 653.385,482.893 Z M 658.883,486.423 L 659.561,486.711 L 660.308,487.036 L 661.055,487.369 L 661.803,487.713 L 662.357,486.5 L 661.601,486.156 L 660.844,485.817 L 660.087,485.487 L 659.405,485.196 Z M 664.797,489.155 L 665.552,489.537 L 666.304,489.925 L 667.057,490.321 L 667.812,490.728 L 668.444,489.555 L 667.681,489.145 L 666.92,488.744 L 666.157,488.351 L 665.4,487.965 Z M 670.835,492.424 L 671.596,492.867 L 672.355,493.319 L 673.115,493.779 L 673.568,494.059 L 674.267,492.923 L 673.808,492.643 L 673.04,492.177 L 672.271,491.72 L 671.507,491.272 Z "/>
			</g>
		</g>
	</g>
</svg>