<?xml version="1.0" encoding="UTF-8" standalone="no"?>
<!-- Created with Serif DrawPlus 11, 0, 3, 23 (Feb 25, 14:12:55) (http://www.serif.com) -->
<svg version="1.1" xmlns="http://www.w3.org/2000/svg" xmlns:xlink="http://www.w3.org/1999/xlink" width="206.9" height="269.261">
	<g id="dp_group001" transform="matrix(1,0,0,1,-106.279,-452.876)">
		<g id="dp_group002">
			<g id="dp_group003">
				<path id="dp_path004" fill="#2f06cf" fill-rule="evenodd" d="M 159.661,658.723 L 159.653,657.389 L 160.971,654.715 L 154.991,658.084 L 161.011,661.381 Z "/>
				<path id="dp_path005" fill="#2f06cf" d="M 156.457,565.689 L 156.485,562.489 L 155.152,562.479 L 155.124,565.679 Z M 156.513,559.289 L 156.541,556.089 L 155.208,556.079 L 155.18,559.279 Z M 156.569,552.889 L 156.597,549.689 L 155.264,549.679 L 155.236,552.879 Z M 156.625,546.489 L 156.653,543.289 L 155.32,543.279 L 155.292,546.479 Z M 156.681,540.089 L 156.709,536.889 L 155.376,536.879 L 155.348,540.079 Z M 156.737,533.689 L 156.765,530.489 L 155.432,530.479 L 155.404,533.679 Z M 156.793,527.289 L 156.821,524.089 L 155.488,524.079 L 155.46,527.279 Z M 156.849,520.889 L 156.876,517.689 L 155.543,517.679 L 155.516,520.879 Z M 156.904,514.489 L 156.931,511.289 L 155.597,511.279 L 155.571,514.479 Z M 156.959,508.089 L 156.985,504.889 L 155.652,504.879 L 155.625,508.079 Z M 157.013,501.689 L 157.04,498.489 L 155.707,498.479 L 155.68,501.679 Z M 157.068,495.289 L 157.095,492.089 L 155.761,492.079 L 155.735,495.279 Z M 157.123,488.889 L 157.149,485.689 L 155.816,485.679 L 155.789,488.879 Z M 157.177,482.489 L 157.188,481.191 L 156.521,481.185 L 156.025,481.631 L 157.293,483.047 L 158.285,482.156 L 155.869,479.457 L 155.844,482.479 Z M 159.428,485.431 L 161.563,487.815 L 162.555,486.924 L 160.42,484.54 Z M 163.697,490.199 L 165.832,492.583 L 166.824,491.692 L 164.689,489.308 Z M 167.967,494.967 L 170.101,497.351 L 171.093,496.46 L 168.959,494.076 Z M 172.236,499.735 L 174.371,502.119 L 175.363,501.228 L 173.228,498.844 Z M 176.505,504.503 L 178.64,506.887 L 179.632,505.996 L 177.497,503.612 Z M 180.775,509.271 L 182.909,511.655 L 183.901,510.764 L 181.767,508.38 Z M 185.044,514.039 L 187.179,516.423 L 188.171,515.532 L 186.036,513.148 Z M 189.313,518.807 L 191.448,521.191 L 192.44,520.3 L 190.305,517.916 Z M 193.583,523.575 L 195.717,525.959 L 196.709,525.068 L 194.575,522.684 Z M 197.852,528.343 L 199.987,530.727 L 200.979,529.836 L 198.844,527.452 Z M 202.121,533.111 L 204.256,535.495 L 205.248,534.604 L 203.113,532.22 Z M 206.391,537.879 L 208.525,540.263 L 209.517,539.372 L 207.383,536.988 Z M 210.66,542.647 L 212.795,545.031 L 213.787,544.14 L 211.652,541.756 Z M 214.929,547.415 L 217.064,549.799 L 218.056,548.908 L 215.921,546.524 Z M 219.199,552.183 L 221.333,554.567 L 222.325,553.676 L 220.191,551.292 Z M 223.468,556.951 L 225.603,559.335 L 226.595,558.444 L 224.46,556.06 Z M 227.737,561.719 L 229.872,564.103 L 230.864,563.212 L 228.729,560.828 Z M 232.007,566.487 L 234.141,568.871 L 235.133,567.98 L 232.999,565.596 Z M 236.276,571.255 L 238.411,573.639 L 239.403,572.748 L 237.268,570.364 Z M 240.545,576.023 L 242.68,578.407 L 243.672,577.516 L 241.537,575.132 Z M 244.815,580.791 L 246.949,583.175 L 247.941,582.284 L 245.807,579.9 Z M 249.084,585.559 L 251.219,587.943 L 252.211,587.052 L 250.076,584.668 Z M 253.353,590.327 L 255.488,592.711 L 256.48,591.82 L 254.345,589.436 Z M 257.623,595.095 L 259.757,597.479 L 260.749,596.588 L 258.615,594.204 Z M 261.892,599.863 L 264.027,602.247 L 265.019,601.356 L 262.884,598.972 Z M 266.161,604.631 L 268.296,607.015 L 269.288,606.124 L 267.153,603.74 Z M 270.429,609.397 L 272.563,611.783 L 273.557,610.895 L 271.424,608.509 Z M 272.529,613.105 L 272.165,613.433 L 271.393,614.112 L 270.619,614.788 L 270.131,615.208 L 271.003,616.216 L 271.491,615.793 L 272.271,615.115 L 273.048,614.428 L 273.417,614.1 Z M 267.484,617.44 L 266.692,618.092 L 265.897,618.737 L 265.097,619.377 L 265.009,619.447 L 265.836,620.492 L 265.927,620.42 L 266.732,619.775 L 267.535,619.124 L 268.332,618.469 Z M 262.497,621.411 L 261.868,621.891 L 261.053,622.508 L 260.235,623.119 L 259.949,623.328 L 260.741,624.4 L 261.027,624.188 L 261.853,623.572 L 262.673,622.952 L 263.305,622.469 Z M 257.368,625.197 L 256.928,625.511 L 256.095,626.095 L 255.257,626.676 L 254.752,627.02 L 255.504,628.121 L 256.012,627.772 L 256.855,627.188 L 257.696,626.599 L 258.139,626.285 Z M 251.877,628.944 L 251.025,629.501 L 250.171,630.049 L 249.311,630.595 L 249.193,630.668 L 249.903,631.796 L 250.023,631.72 L 250.885,631.172 L 251.748,630.619 L 252.605,630.061 Z M 246.479,632.34 L 245.851,632.72 L 244.977,633.239 L 244.103,633.751 L 243.735,633.963 L 244.404,635.117 L 244.772,634.903 L 245.655,634.385 L 246.533,633.861 L 247.167,633.481 Z M 240.961,635.536 L 240.575,635.752 L 239.687,636.239 L 238.795,636.72 L 237.899,637.197 L 238.525,638.373 L 239.424,637.893 L 240.321,637.409 L 241.217,636.917 L 241.609,636.701 Z M 235.071,638.661 L 234.301,639.049 L 233.395,639.499 L 232.485,639.944 L 232.213,640.075 L 232.792,641.275 L 233.067,641.141 L 233.981,640.693 L 234.896,640.241 L 235.671,639.851 Z M 229.332,641.435 L 228.827,641.668 L 227.905,642.087 L 226.983,642.497 L 226.423,642.743 L 226.959,643.964 L 227.521,643.716 L 228.452,643.3 L 229.379,642.879 L 229.887,642.648 Z M 223.268,644.092 L 222.333,644.479 L 221.397,644.859 L 220.459,645.232 L 220.313,645.288 L 220.799,646.531 L 220.947,646.472 L 221.893,646.093 L 222.837,645.711 L 223.777,645.324 Z M 217.336,646.431 L 216.684,646.675 L 215.735,647.021 L 214.784,647.363 L 214.339,647.52 L 214.784,648.776 L 215.229,648.619 L 216.188,648.275 L 217.145,647.925 L 217.803,647.681 Z M 211.324,648.552 L 210.961,648.675 L 210.001,648.988 L 209.039,649.296 L 208.072,649.599 L 208.472,650.871 L 209.441,650.565 L 210.409,650.255 L 211.377,649.939 L 211.745,649.819 Z M 205.023,650.515 L 204.2,650.753 L 203.228,651.028 L 202.253,651.296 L 201.953,651.376 L 202.3,652.664 L 202.603,652.581 L 203.585,652.311 L 204.565,652.033 L 205.393,651.795 Z M 198.868,652.183 L 198.339,652.316 L 197.356,652.556 L 196.372,652.792 L 195.769,652.931 L 196.071,654.229 L 196.676,654.088 L 197.668,653.852 L 198.659,653.609 L 199.193,653.476 Z M 192.423,653.673 L 191.429,653.881 L 190.437,654.081 L 189.441,654.277 L 189.296,654.304 L 189.547,655.613 L 189.695,655.584 L 190.696,655.388 L 191.696,655.185 L 192.695,654.98 Z M 186.161,654.876 L 185.452,654.997 L 184.452,655.164 L 183.451,655.325 L 183.016,655.391 L 183.216,656.708 L 183.656,656.64 L 184.665,656.479 L 185.673,656.312 L 186.385,656.191 Z M 179.86,655.849 L 179.431,655.908 L 178.423,656.039 L 177.413,656.164 L 176.401,656.283 L 176.559,657.608 L 177.573,657.487 L 178.591,657.361 L 179.607,657.228 L 180.039,657.169 Z M 173.235,656.619 L 172.356,656.703 L 171.341,656.791 L 170.325,656.876 L 170.061,656.895 L 170.16,658.225 L 170.429,658.204 L 171.453,658.119 L 172.476,658.028 L 173.36,657.947 Z M 166.879,657.115 L 166.253,657.152 L 165.233,657.207 L 164.215,657.255 L 163.696,657.275 L 163.752,658.608 L 164.271,658.585 L 165.3,658.537 L 166.328,658.483 L 166.959,658.445 Z M 160.508,657.377 L 160.128,657.388 L 159.653,657.389 L 159.661,658.723 L 160.147,658.719 L 160.54,658.711 Z "/>
			</g>
		</g>
		<g id="dp_group006">
			<g id="dp_group007">
				<path id="dp_path008" fill="#cc0505" fill-rule="evenodd" d="M 274.444,671.748 L 271.777,671.748 L 266.444,671.748 L 273.111,685.081 L 279.777,671.748 Z "/>
				<path id="dp_path009" fill="#cc0505" d="M 271.776,612.228 L 271.776,671.748 L 274.443,671.748 L 274.443,612.228 Z "/>
			</g>
		</g>
		<path id="dp_path010" fill="white" fill-rule="evenodd" stroke="black" stroke-width="1.33333" d="M 177.731,505.283 C 171.843,510.593 164.175,513.503 156.245,513.433 L 156.521,481.768 Z "/>
		<path id="dp_path011" fill="black" fill-rule="evenodd" d="M 166.781,529.637 C 167.356,529.624 167.936,529.429 168.515,529.052 C 169.079,528.691 169.616,528.205 170.127,527.595 C 171.167,526.317 171.975,524.851 172.549,523.196 C 172.827,522.38 173.025,521.588 173.143,520.82 C 173.241,520.055 173.239,519.364 173.132,518.749 C 173.037,518.136 172.832,517.644 172.517,517.276 C 172.188,516.913 171.739,516.733 171.167,516.733 C 170.608,516.733 170.045,516.913 169.483,517.276 C 168.917,517.644 168.372,518.136 167.849,518.749 C 166.779,520.045 165.959,521.527 165.392,523.196 C 164.829,524.851 164.645,526.317 164.844,527.595 C 164.951,528.205 165.164,528.691 165.481,529.052 C 165.793,529.429 166.225,529.624 166.781,529.637 Z M 170.724,523.215 L 170.34,524.344 C 169.845,525.803 169.316,526.963 168.755,527.825 C 168.165,528.72 167.559,529.172 166.936,529.185 C 166.344,529.172 166.059,528.72 166.084,527.825 C 166.08,526.963 166.324,525.803 166.819,524.344 L 167.204,523.215 Z M 167.449,522.496 L 167.912,521.132 C 168.267,520.087 168.715,519.18 169.256,518.412 C 169.532,518.036 169.82,517.735 170.116,517.509 C 170.411,517.293 170.708,517.185 171.013,517.185 C 171.341,517.185 171.579,517.293 171.727,517.509 C 171.869,517.735 171.951,518.036 171.972,518.412 C 171.968,519.18 171.788,520.087 171.432,521.132 L 170.968,522.496 Z "/>
		<g id="dp_group012">
			<g id="dp_group013">
				<path id="dp_path014" fill="#cc0505" fill-rule="evenodd" d="M 229.829,561.545 L 231.823,559.773 L 235.808,556.229 L 221.965,550.696 L 225.844,565.089 Z "/>
				<path id="dp_path015" fill="#cc0505" d="M 267.765,600.176 L 231.823,559.772 L 229.831,561.545 L 265.773,601.949 Z "/>
			</g>
		</g>
		<text id="dp_text001" transform="matrix(1,0,0,1,249.093,570.091)" xml:space="preserve" fill="#cc0505" font-family="Arial" font-size="20" font-weight="700" x="0" y="0">C</text>
		<text id="dp_text002" transform="matrix(1,0,0,1,249.093,570.091)" xml:space="preserve" fill="#cc0505" font-family="Arial" font-size="20" font-weight="400" font-style="italic" x="14.256" y="0"> </text>
		<text id="dp_text003" transform="matrix(1,0,0,1,281.983,668.383)" xml:space="preserve" fill="#cc0505" font-family="Arial" font-size="20" font-weight="700" x="0" y="0">N</text>
		<text id="dp_text004" transform="matrix(1,0,0,1,281.983,668.383)" xml:space="preserve" fill="#cc0505" font-family="Arial" font-size="20" font-weight="400" font-style="italic" x="14.256" y="0"> </text>
		<g id="dp_group020">
			<g id="dp_group021">
				<path id="dp_path022" fill="black" fill-rule="evenodd" d="M 257.599,592.775 L 255.605,594.547 L 251.62,598.091 L 265.461,603.625 L 261.584,589.231 Z "/>
				<path id="dp_path023" fill="black" d="M 154.271,480.571 L 255.605,594.547 L 257.597,592.776 L 156.263,478.8 Z "/>
			</g>
		</g>
		<text id="dp_text005" transform="matrix(1,3.33067e-016,-2.77556e-016,1,200.697,524.002)" xml:space="preserve" fill="black" font-family="Arial" font-size="21" font-weight="700" x="0" y="0">r</text>
		<text id="dp_text006" transform="matrix(1,3.33067e-016,-2.77556e-016,1,200.697,524.002)" xml:space="preserve" fill="black" font-family="Arial" font-size="21" font-weight="400" x="7.99467" y="0">=(</text>
		<text id="dp_text007" transform="matrix(1,3.33067e-016,-2.77556e-016,1,200.697,524.002)" xml:space="preserve" fill="black" font-family="Arial" font-size="21" font-weight="400" font-style="italic" x="26.828" y="0">x</text>
		<text id="dp_text008" transform="matrix(1,3.33067e-016,-2.77556e-016,1,200.697,524.002)" xml:space="preserve" fill="black" font-family="Arial" font-size="21" font-weight="400" x="37.1213" y="0">,</text>
		<text id="dp_text009" transform="matrix(1,3.33067e-016,-2.77556e-016,1,200.697,524.002)" xml:space="preserve" fill="black" font-family="Arial" font-size="21" font-weight="400" font-style="italic" x="42.8147" y="0">y</text>
		<text id="dp_text010" transform="matrix(1,3.33067e-016,-2.77556e-016,1,200.697,524.002)" xml:space="preserve" fill="black" font-family="Arial" font-size="21" font-weight="400" x="53.108" y="0">)</text>
		<text id="dp_text011" transform="matrix(1,3.33067e-016,-2.77556e-016,1,200.697,524.002)" xml:space="preserve" fill="black" font-family="Arial" font-size="21" font-weight="700" x="59.952" y="0"> </text>
		<path id="dp_path031" fill="none" fill-rule="evenodd" stroke="black" stroke-width="1.33333" stroke-dasharray="3.2,3.2" d="M 155.793,611.588 L 272.227,611.588"/>
		<path id="dp_path032" fill="none" fill-rule="evenodd" stroke="black" stroke-width="1.33333" stroke-dasharray="3.2,3.2" d="M 272.227,480.391 L 272.227,611.588"/>
		<g id="dp_group033">
			<g id="dp_group034">
				<path id="dp_path035" fill="black" fill-rule="evenodd" d="M 156.457,604.921 L 155.124,604.921 L 152.457,604.921 L 155.791,611.588 L 159.124,604.921 Z "/>
				<path id="dp_path036" fill="black" d="M 155.124,480.391 L 155.124,604.921 L 156.457,604.921 L 156.457,480.391 Z "/>
			</g>
		</g>
		<g id="dp_group037">
			<g id="dp_group038">
				<path id="dp_path039" fill="black" fill-rule="evenodd" d="M 266.123,479.723 L 266.123,481.056 L 266.123,483.723 L 272.789,480.389 L 266.123,477.056 Z "/>
				<path id="dp_path040" fill="black" d="M 155.791,481.057 L 266.123,481.056 L 266.123,479.723 L 155.791,479.724 Z "/>
			</g>
		</g>
		<path id="dp_path041" fill="#fa8909" fill-rule="evenodd" stroke="none" stroke-width="1.33333" d="M 264.431,602.464 C 269.821,597.669 278.08,598.155 282.875,603.547 C 287.669,608.94 287.184,617.199 281.792,621.992 C 276.401,626.785 268.143,626.301 263.348,620.908 C 258.553,615.515 259.039,607.257 264.431,602.464 Z "/>
		<text id="dp_text012" transform="matrix(1,2.77556e-016,-2.22045e-016,1,266.771,617.707)" xml:space="preserve" fill="black" font-family="Arial" font-size="15" font-weight="400" font-style="italic" x="0" y="0">m </text>
		<text id="dp_text013" transform="matrix(1,0,0,1,138.62,566.522)" xml:space="preserve" fill="black" font-family="Arial" font-size="21" font-weight="400" font-style="italic" x="0" y="0">y </text>
		<text id="dp_text014" transform="matrix(1,0,0,1,211.369,473.408)" xml:space="preserve" fill="black" font-family="Arial" font-size="21" font-weight="400" font-style="italic" x="0" y="0">x</text>
		<text id="dp_text015" transform="matrix(1,0,0,1,211.369,473.408)" xml:space="preserve" fill="black" font-family="Times New Roman" font-size="16" font-weight="400" x="10.2933" y="0"> </text>
		<text id="dp_text016" transform="matrix(1,0,0,1,202.135,564.651)" xml:space="preserve" fill="#2f06cf" font-family="Arial" font-size="21" font-weight="400" font-style="italic" x="0" y="0">L </text>
		<g id="dp_group047">
			<text id="dp_text017" transform="matrix(1,0,0,1,177.052,717.154)" xml:space="preserve" fill="#2f06cf" font-family="Arial" font-size="21" font-weight="400" font-style="italic" x="0" y="0">x </text>
			<text id="dp_text018" transform="matrix(1,0,0,1,188.345,710.477)" xml:space="preserve" fill="#2f06cf" font-family="Arial" font-size="15" font-weight="400" x="0" y="0">2 </text>
			<text id="dp_text019" transform="matrix(1,0,0,1,216.052,717.154)" xml:space="preserve" fill="#2f06cf" font-family="Arial" font-size="21" font-weight="400" font-style="italic" x="0" y="0">y </text>
			<text id="dp_text020" transform="matrix(1,0,0,1,228.345,710.477)" xml:space="preserve" fill="#2f06cf" font-family="Arial" font-size="15" font-weight="400" x="0" y="0">2 </text>
			<text id="dp_text021" transform="matrix(1,0,0,1,201.052,717.154)" xml:space="preserve" fill="#2f06cf" font-family="Arial" font-size="21" font-weight="400" x="0" y="0">+ </text>
			<text id="dp_text022" transform="matrix(1,0,0,1,256.052,717.154)" xml:space="preserve" fill="#2f06cf" font-family="Arial" font-size="21" font-weight="400" font-style="italic" x="0" y="0">L </text>
			<text id="dp_text023" transform="matrix(1,0,0,1,269.345,710.477)" xml:space="preserve" fill="#2f06cf" font-family="Arial" font-size="15" font-weight="400" x="0" y="0">2 </text>
			<text id="dp_text024" transform="matrix(1.88337,0,0,1,240.052,715.154)" xml:space="preserve" fill="#2f06cf" font-family="Arial" font-size="21" font-weight="400" x="0" y="0">- </text>
			<text id="dp_text025" transform="matrix(1,0,0,1,284.052,717.154)" xml:space="preserve" fill="#2f06cf" font-family="Arial" font-size="21" font-weight="400" x="0" y="0">= 0 </text>
			<text id="dp_text026" transform="matrix(1,0,0,1,106.279,717.154)" xml:space="preserve" fill="#2f06cf" font-family="Arial" font-size="21" font-weight="400" font-style="italic" x="0" y="0">f</text>
			<text id="dp_text027" transform="matrix(1,0,0,1,106.279,717.154)" xml:space="preserve" fill="#2f06cf" font-family="Arial" font-size="21" font-weight="400" x="5.69467" y="0">(</text>
			<text id="dp_text028" transform="matrix(1,0,0,1,106.279,717.154)" xml:space="preserve" fill="#2f06cf" font-family="Arial" font-size="21" font-weight="400" font-style="italic" x="12.5387" y="0">x,y</text>
			<text id="dp_text029" transform="matrix(1,0,0,1,106.279,717.154)" xml:space="preserve" fill="#2f06cf" font-family="Arial" font-size="21" font-weight="400" x="38.82" y="0">)</text>
			<text id="dp_text030" transform="matrix(1,0,0,1,106.279,717.154)" xml:space="preserve" fill="#2f06cf" font-family="Arial" font-size="21" font-weight="400" font-style="italic" x="45.664" y="0"> </text>
			<text id="dp_text031" transform="matrix(1,0,0,1,106.279,717.154)" xml:space="preserve" fill="#2f06cf" font-family="Arial" font-size="21" font-weight="400" x="51.3587" y="0">= </text>
			<text id="dp_text032" transform="matrix(1,0,0,1,106.279,717.154)" xml:space="preserve" fill="#2f06cf" font-family="Arial" font-size="21" font-weight="400" font-style="italic" x="69.0427" y="0"> </text>
		</g>
	</g>
</svg>