<?xml version="1.0" encoding="UTF-8" standalone="no"?>
<!-- Created with Serif DrawPlus 11, 0, 3, 23 (Feb 25, 14:12:55) (http://www.serif.com) -->
<svg version="1.1" xmlns="http://www.w3.org/2000/svg" xmlns:xlink="http://www.w3.org/1999/xlink" width="597.335" height="304.053">
	<g id="dp_group001" transform="matrix(1,0,0,1,-111.937,-415.763)">
		<path id="dp_path002" fill="none" fill-rule="evenodd" stroke="#b31408" stroke-width="2.66667" d="M 456.055,509.108 L 456.051,619.907"/>
		<path id="dp_path003" fill="#e37506" fill-rule="evenodd" stroke="none" stroke-width="2.66667" d="M 135.347,546.185 C 141.613,546.185 146.695,551.468 146.695,557.985 C 146.695,564.503 141.613,569.785 135.347,569.785 C 129.08,569.785 123.999,564.503 123.999,557.985 C 123.999,551.468 129.08,546.185 135.347,546.185 Z "/>
		<g id="dp_group004">
			<g id="dp_group005">
				<path id="dp_path006" fill="#b31408" fill-rule="evenodd" d="M 139.804,571.14 L 142.133,569.84 L 146.789,567.24 L 134.468,558.848 L 135.148,573.74 Z "/>
				<path id="dp_path007" fill="#b31408" d="M 224.827,717.936 L 142.133,569.839 L 139.805,571.14 L 222.499,719.237 Z "/>
			</g>
		</g>
		<g id="dp_group008">
			<g id="dp_group009">
				<path id="dp_path010" fill="black" fill-rule="evenodd" d="M 135.801,644.516 L 133.135,644.516 L 127.801,644.516 L 134.468,657.849 L 141.135,644.516 Z "/>
				<path id="dp_path011" fill="black" d="M 133.135,558.848 L 133.133,644.516 L 135.8,644.516 L 135.801,558.848 Z "/>
			</g>
		</g>
		<g id="dp_group012">
			<text id="dp_text001" transform="matrix(1,0,0,1,190.196,645.229)" xml:space="preserve" fill="#b31408" font-family="Arial" font-size="27" font-weight="700" x="0" y="0">r </text>
			<text id="dp_text002" transform="matrix(1,0,0,1,198.92,650.921)" xml:space="preserve" fill="#b31408" font-family="Arial" font-size="16" font-weight="400" x="0" y="0">0 </text>
		</g>
		<g id="dp_group015">
			<text id="dp_text003" transform="matrix(1,0,0,1,207.4,512.865)" xml:space="preserve" fill="#1707ab" font-family="Arial" font-size="27" font-weight="700" x="0" y="0">v </text>
			<text id="dp_text004" transform="matrix(1,0,0,1,219.178,518.557)" xml:space="preserve" fill="#1707ab" font-family="Arial" font-size="16" font-weight="400" x="0" y="0">0 </text>
		</g>
		<text id="dp_text005" transform="matrix(1,0,0,1,111.937,620.547)" xml:space="preserve" fill="black" font-family="Arial" font-size="27" font-weight="700" x="0" y="0">a </text>
		<path id="dp_path019" fill="#e37506" fill-rule="evenodd" stroke="none" stroke-width="2.66667" d="M 455.8,608.349 C 462.317,608.349 467.6,613.632 467.6,620.149 C 467.6,626.667 462.317,631.949 455.8,631.949 C 449.283,631.949 444,626.667 444,620.149 C 444,613.632 449.283,608.349 455.8,608.349 Z "/>
		<text id="dp_text006" transform="matrix(1,0,0,1,316.596,648.156)" xml:space="preserve" fill="#b31408" font-family="Arial" font-size="27" font-weight="700" x="0" y="0">r</text>
		<text id="dp_text007" transform="matrix(1,0,0,1,316.596,648.156)" xml:space="preserve" fill="#b31408" font-family="Arial" font-size="27" font-weight="400" x="10.704" y="0">(</text>
		<text id="dp_text008" transform="matrix(1,0,0,1,316.596,648.156)" xml:space="preserve" fill="#b31408" font-family="Arial" font-size="27" font-weight="400" font-style="italic" x="19.868" y="0">t</text>
		<text id="dp_text009" transform="matrix(1,0,0,1,316.596,648.156)" xml:space="preserve" fill="#b31408" font-family="Arial" font-size="27" font-weight="400" x="27.492" y="0">)</text>
		<text id="dp_text010" transform="matrix(1,0,0,1,316.596,648.156)" xml:space="preserve" fill="#b31408" font-family="Arial" font-size="27" font-weight="700" x="36.656" y="0"> </text>
		<text id="dp_text011" transform="matrix(1,0,0,1,479.715,697.664)" xml:space="preserve" fill="#1707ab" font-family="Arial" font-size="27" font-weight="700" x="0" y="0">v</text>
		<text id="dp_text012" transform="matrix(1,0,0,1,479.715,697.664)" xml:space="preserve" fill="#1707ab" font-family="Arial" font-size="27" font-weight="400" x="15.3213" y="0">(</text>
		<text id="dp_text013" transform="matrix(1,0,0,1,479.715,697.664)" xml:space="preserve" fill="#1707ab" font-family="Arial" font-size="27" font-weight="400" font-style="italic" x="24.4853" y="0">t</text>
		<text id="dp_text014" transform="matrix(1,0,0,1,479.715,697.664)" xml:space="preserve" fill="#1707ab" font-family="Arial" font-size="27" font-weight="400" x="32.1093" y="0">)</text>
		<text id="dp_text015" transform="matrix(1,0,0,1,479.715,697.664)" xml:space="preserve" fill="#1707ab" font-family="Arial" font-size="27" font-weight="700" x="41.2733" y="0"> </text>
		<g id="dp_group030">
			<g id="dp_group031">
				<path id="dp_path032" fill="#b31408" fill-rule="evenodd" d="M 286.152,507.521 L 286.988,510.053 L 288.659,515.119 L 299.232,504.609 L 284.481,502.456 Z "/>
				<path id="dp_path033" fill="#b31408" d="M 147.017,556.249 L 286.988,510.055 L 286.153,507.521 L 146.183,553.716 Z "/>
			</g>
		</g>
		<g id="dp_group034">
			<text id="dp_text016" transform="matrix(1,0,0,1,414.425,443.254)" xml:space="preserve" fill="#b31408" font-family="Arial" font-size="27" font-weight="700" x="0" y="0">v </text>
			<text id="dp_text017" transform="matrix(1,0,0,1,414.425,443.254)" xml:space="preserve" fill="#b31408" font-family="Arial" font-size="27" font-weight="400" font-style="italic" x="22.9453" y="0">t </text>
			<text id="dp_text018" transform="matrix(1,0,0,1,426.204,448.946)" xml:space="preserve" fill="#b31408" font-family="Arial" font-size="16" font-weight="400" x="0" y="0">0 </text>
		</g>
		<g id="dp_group038">
			<g id="dp_group039">
				<path id="dp_path040" fill="#b31408" fill-rule="evenodd" d="M 457.385,528.652 L 454.719,528.652 L 449.385,528.652 L 456.052,541.985 L 462.719,528.652 Z "/>
				<path id="dp_path041" fill="#b31408" d="M 454.719,452.853 L 454.717,528.652 L 457.384,528.652 L 457.385,452.853 Z "/>
			</g>
		</g>
		<g id="dp_group042">
			<text id="dp_text019" transform="matrix(1,0,0,1,464.723,536.599)" xml:space="preserve" fill="#b31408" font-family="Arial" font-size="27" font-weight="700" x="0" y="0">a</text>
			<text id="dp_text020" transform="matrix(1,0,0,1,464.723,536.599)" xml:space="preserve" fill="#b31408" font-family="Arial" font-size="27" font-weight="400" font-style="italic" x="15.3227" y="0">t  / </text>
			<text id="dp_text021" transform="matrix(1,0,0,1,464.723,536.599)" xml:space="preserve" fill="#b31408" font-family="Arial" font-size="27" font-weight="400" x="53.4427" y="0">2</text>
			<text id="dp_text022" transform="matrix(1,0,0,1,464.723,536.599)" xml:space="preserve" fill="#b31408" font-family="Arial" font-size="27" font-weight="700" x="68.7653" y="0"> </text>
			<text id="dp_text023" transform="matrix(1,0,0,1,493.444,526.17)" xml:space="preserve" fill="#b31408" font-family="Arial" font-size="20" font-weight="400" x="0" y="0">2</text>
			<text id="dp_text024" transform="matrix(1,0,0,1,493.444,526.17)" xml:space="preserve" fill="#b31408" font-family="Times New Roman" font-size="12" font-weight="400" x="11.3227" y="0"> </text>
		</g>
		<g id="dp_group049">
			<g id="dp_group050">
				<path id="dp_path051" fill="#1707ab" fill-rule="evenodd" d="M 221.305,528.075 L 222.552,531.875 L 225.047,539.476 L 240.932,523.737 L 218.811,520.473 Z "/>
				<path id="dp_path052" fill="#1707ab" d="M 146.357,556.884 L 222.553,531.876 L 221.305,528.076 L 145.109,553.084 Z "/>
			</g>
		</g>
		<g id="dp_group053">
			<g id="dp_group054">
				<path id="dp_path055" fill="#1707ab" fill-rule="evenodd" d="M 539.127,591.563 L 539.959,594.097 L 541.621,599.164 L 552.211,588.672 L 537.464,586.496 Z "/>
				<path id="dp_path056" fill="#1707ab" d="M 457.427,621.185 L 539.959,594.097 L 539.127,591.564 L 456.595,618.652 Z "/>
			</g>
		</g>
		<g id="dp_group057">
			<g id="dp_group058">
				<path id="dp_path059" fill="black" fill-rule="evenodd" d="M 553.543,687.228 L 550.876,687.228 L 545.543,687.228 L 552.209,700.561 L 558.876,687.228 Z "/>
				<path id="dp_path060" fill="black" d="M 550.876,589.095 L 550.875,687.228 L 553.541,687.228 L 553.543,589.095 Z "/>
			</g>
		</g>
		<g id="dp_group061">
			<text id="dp_text025" transform="matrix(1,0,0,1,500.351,589.553)" xml:space="preserve" fill="#1707ab" font-family="Arial" font-size="27" font-weight="700" x="0" y="0">v </text>
			<text id="dp_text026" transform="matrix(1,0,0,1,512.129,595.245)" xml:space="preserve" fill="#1707ab" font-family="Arial" font-size="16" font-weight="400" x="0" y="0">0 </text>
		</g>
		<g id="dp_group064">
			<g id="dp_group065">
				<text id="dp_text027" transform="matrix(1,0,0,1,633.209,645.295)" xml:space="preserve" fill="#1707ab" font-family="Arial" font-size="27" font-weight="700" x="0" y="0">v </text>
				<text id="dp_text028" transform="matrix(1,0,0,1,644.988,650.987)" xml:space="preserve" fill="#1707ab" font-family="Arial" font-size="16" font-weight="400" x="0" y="0">0 </text>
			</g>
			<text id="dp_text029" transform="matrix(1,0,0,1,563.412,645.296)" xml:space="preserve" fill="#1707ab" font-family="Arial" font-size="27" font-weight="700" x="0" y="0">v</text>
			<text id="dp_text030" transform="matrix(1,0,0,1,563.412,645.296)" xml:space="preserve" fill="#1707ab" font-family="Arial" font-size="27" font-weight="400" x="15.3213" y="0">(</text>
			<text id="dp_text031" transform="matrix(1,0,0,1,563.412,645.296)" xml:space="preserve" fill="#1707ab" font-family="Arial" font-size="27" font-weight="400" font-style="italic" x="24.4853" y="0">t</text>
			<text id="dp_text032" transform="matrix(1,0,0,1,563.412,645.296)" xml:space="preserve" fill="#1707ab" font-family="Arial" font-size="27" font-weight="400" x="32.1093" y="0">)</text>
			<text id="dp_text033" transform="matrix(1,0,0,1,563.412,645.296)" xml:space="preserve" fill="#1707ab" font-family="Arial" font-size="27" font-weight="700" x="41.2733" y="0"> </text>
			<path id="dp_path073" fill="#1707ab" fill-rule="evenodd" d="M 611.683,640.848 L 611.683,638.42 L 625.611,638.42 L 625.611,640.848 Z "/>
			<text id="dp_text034" transform="matrix(1,0,0,1,653.553,647.841)" xml:space="preserve" fill="black" font-family="Arial" font-size="27" font-weight="700" x="0" y="0"> </text>
			<text id="dp_text035" transform="matrix(1,0,0,1,653.553,647.841)" xml:space="preserve" fill="black" font-family="Arial" font-size="27" font-weight="400" x="7.624" y="0">= </text>
			<text id="dp_text036" transform="matrix(1,0,0,1,653.553,647.841)" xml:space="preserve" fill="black" font-family="Arial" font-size="27" font-weight="700" x="31.304" y="0">a</text>
			<text id="dp_text037" transform="matrix(1,0,0,1,653.553,647.841)" xml:space="preserve" fill="black" font-family="Arial" font-size="27" font-weight="400" font-style="italic" x="46.6267" y="0">t</text>
			<text id="dp_text038" transform="matrix(1,0,0,1,653.553,647.841)" xml:space="preserve" fill="black" font-family="Arial" font-size="27" font-weight="700" x="54.2507" y="0"> </text>
		</g>
		<g id="dp_group079">
			<g id="dp_group080">
				<path id="dp_path081" fill="#1707ab" fill-rule="evenodd" d="M 538.243,686.107 L 535.657,689.159 L 530.487,695.263 L 552.211,700.56 L 543.415,680.003 Z "/>
				<path id="dp_path082" fill="#1707ab" d="M 455.716,621.447 L 535.656,689.16 L 538.243,686.107 L 458.303,618.393 Z "/>
			</g>
		</g>
		<g id="dp_group083">
			<g id="dp_group084">
				<path id="dp_path085" fill="#b31408" fill-rule="evenodd" d="M 444.419,623.88 L 445.456,626.337 L 447.531,631.249 L 457.22,619.92 L 442.343,618.967 Z "/>
				<path id="dp_path086" fill="#b31408" d="M 224.187,719.815 L 445.456,626.337 L 444.419,623.881 L 223.149,717.359 Z "/>
			</g>
		</g>
		<g id="dp_group087">
			<g id="dp_group088">
				<path id="dp_path089" fill="black" fill-rule="evenodd" d="M 449.928,612.981 L 448.167,614.983 L 442.641,617.225 L 456.053,620.148 L 451.449,607.216 Z "/>
				<path id="dp_path090" fill="black" d="M 135.755,559.255 L 136.959,558.867 L 138.161,558.483 L 139.365,558.101 L 140.572,557.724 L 141.781,557.349 L 141.847,557.329 L 141.052,554.785 L 140.989,554.805 L 139.78,555.18 L 138.568,555.56 L 137.356,555.941 L 136.145,556.328 L 134.939,556.716 Z M 147.952,555.492 L 149.033,555.175 L 150.245,554.823 L 151.459,554.476 L 152.672,554.132 L 153.888,553.791 L 154.088,553.735 L 153.373,551.167 L 153.171,551.223 L 151.949,551.567 L 150.728,551.913 L 149.509,552.263 L 148.289,552.615 L 147.203,552.932 Z M 160.247,552.067 L 161.193,551.817 L 162.413,551.501 L 163.635,551.189 L 164.857,550.879 L 166.08,550.573 L 166.429,550.488 L 165.789,547.899 L 165.437,547.987 L 164.207,548.295 L 162.979,548.605 L 161.749,548.92 L 160.521,549.239 L 159.569,549.488 Z M 172.636,549.003 L 173.431,548.817 L 174.659,548.539 L 175.887,548.264 L 177.116,547.991 L 178.345,547.723 L 178.86,547.613 L 178.3,545.005 L 177.783,545.117 L 176.545,545.388 L 175.308,545.661 L 174.072,545.939 L 172.836,546.22 L 172.033,546.405 Z M 185.107,546.321 L 185.739,546.196 L 186.973,545.955 L 188.208,545.719 L 189.445,545.487 L 190.681,545.257 L 191.921,545.033 L 191.444,542.409 L 190.201,542.636 L 188.957,542.865 L 187.712,543.1 L 186.469,543.339 L 185.227,543.58 L 184.589,543.705 Z M 198.203,543.959 L 199.353,543.773 L 200.593,543.579 L 201.836,543.387 L 203.079,543.201 L 204.32,543.017 L 204.504,542.992 L 204.131,540.352 L 203.939,540.38 L 202.687,540.564 L 201.436,540.752 L 200.185,540.944 L 198.935,541.141 L 197.779,541.327 Z M 210.825,542.135 L 211.788,542.013 L 213.036,541.861 L 214.281,541.715 L 215.531,541.571 L 216.779,541.433 L 217.157,541.392 L 216.869,538.741 L 216.488,538.783 L 215.232,538.923 L 213.975,539.067 L 212.719,539.216 L 211.463,539.368 L 210.492,539.489 Z M 223.497,540.765 L 224.275,540.697 L 225.527,540.589 L 226.779,540.488 L 228.029,540.391 L 229.283,540.299 L 229.855,540.26 L 229.668,537.599 L 229.093,537.64 L 227.829,537.732 L 226.568,537.832 L 225.305,537.933 L 224.045,538.041 L 223.265,538.109 Z M 236.804,539.844 L 238.06,539.784 L 239.316,539.731 L 240.571,539.681 L 241.828,539.637 L 243.087,539.597 L 243.176,539.596 L 243.096,536.929 L 243.007,536.933 L 241.74,536.973 L 240.475,537.017 L 239.207,537.067 L 237.943,537.123 L 236.679,537.18 Z M 249.545,539.475 L 250.631,539.465 L 251.891,539.463 L 253.151,539.463 L 254.411,539.468 L 255.667,539.479 L 255.915,539.484 L 255.957,536.817 L 255.699,536.815 L 254.427,536.804 L 253.156,536.796 L 251.888,536.796 L 250.617,536.801 L 249.527,536.808 Z M 262.291,539.624 L 263.233,539.656 L 264.495,539.704 L 265.756,539.757 L 267.017,539.815 L 268.279,539.879 L 268.656,539.9 L 268.805,537.239 L 268.42,537.217 L 267.145,537.153 L 265.873,537.093 L 264.599,537.04 L 263.327,536.992 L 262.381,536.96 Z M 275.015,540.311 L 275.856,540.375 L 277.12,540.476 L 278.384,540.584 L 279.648,540.696 L 280.911,540.815 L 281.361,540.86 L 281.625,538.207 L 281.167,538.161 L 279.888,538.043 L 278.613,537.928 L 277.339,537.82 L 276.064,537.719 L 275.22,537.652 Z M 287.696,541.548 L 288.496,541.644 L 289.763,541.803 L 291.027,541.965 L 292.292,542.135 L 293.557,542.311 L 294.013,542.376 L 294.389,539.736 L 293.928,539.671 L 292.652,539.495 L 291.373,539.323 L 290.096,539.157 L 288.821,538.999 L 288.016,538.9 Z M 300.309,543.344 L 301.148,543.484 L 302.415,543.7 L 303.68,543.923 L 304.945,544.151 L 306.212,544.384 L 306.581,544.456 L 307.077,541.835 L 306.7,541.765 L 305.423,541.529 L 304.147,541.299 L 302.868,541.073 L 301.591,540.855 L 300.747,540.715 Z M 312.823,545.708 L 313.804,545.917 L 315.071,546.193 L 316.335,546.476 L 317.601,546.765 L 318.868,547.06 L 319.04,547.101 L 319.653,544.507 L 319.476,544.465 L 318.199,544.168 L 316.921,543.876 L 315.644,543.591 L 314.367,543.312 L 313.383,543.1 Z M 325.219,548.637 L 326.459,548.963 L 327.723,549.303 L 328.988,549.648 L 330.252,549.999 L 331.519,550.359 L 332.247,547.793 L 330.972,547.433 L 329.695,547.077 L 328.419,546.729 L 327.141,546.387 L 325.896,546.059 Z M 337.836,552.247 L 339.104,552.644 L 340.367,553.047 L 341.629,553.459 L 342.895,553.875 L 344.16,554.3 L 345.008,551.772 L 343.735,551.347 L 342.459,550.925 L 341.183,550.511 L 339.907,550.103 L 338.633,549.703 Z M 350.468,556.517 L 351.735,556.98 L 352.995,557.451 L 354.257,557.929 L 355.519,558.412 L 356.781,558.905 L 357.749,556.42 L 356.479,555.927 L 355.204,555.439 L 353.933,554.957 L 352.657,554.481 L 351.385,554.013 Z M 363.079,561.461 L 364.343,561.996 L 365.603,562.535 L 366.861,563.081 L 368.121,563.635 L 369.381,564.197 L 370.467,561.76 L 369.199,561.197 L 367.928,560.639 L 366.656,560.087 L 365.385,559.543 L 364.119,559.005 Z M 375.664,567.103 L 376.924,567.708 L 378.181,568.319 L 379.437,568.936 L 380.693,569.561 L 381.951,570.196 L 383.151,567.815 L 381.885,567.177 L 380.619,566.547 L 379.352,565.924 L 378.084,565.308 L 376.819,564.7 Z M 387.601,573.135 L 388.221,573.465 L 389.473,574.141 L 390.727,574.825 L 391.979,575.516 L 393.232,576.217 L 394.533,573.889 L 393.272,573.185 L 392.007,572.489 L 390.745,571.8 L 389.48,571.116 L 388.855,570.783 Z M 398.755,579.392 L 399.484,579.821 L 400.733,580.565 L 401.983,581.316 L 403.231,582.076 L 404.48,582.845 L 405.877,580.573 L 404.62,579.801 L 403.361,579.036 L 402.101,578.277 L 400.841,577.528 L 400.109,577.096 Z M 409.867,586.245 L 410.712,586.792 L 411.957,587.604 L 413.201,588.427 L 414.445,589.255 L 415.691,590.095 L 417.179,587.881 L 415.928,587.041 L 414.673,586.205 L 413.419,585.377 L 412.163,584.557 L 411.315,584.008 Z M 420.932,593.713 L 421.897,594.393 L 423.137,595.277 L 424.377,596.171 L 425.617,597.071 L 426.111,597.433 L 427.687,595.281 L 427.185,594.916 L 425.937,594.011 L 424.689,593.112 L 423.439,592.22 L 422.471,591.535 Z M 431.219,601.249 L 431.801,601.692 L 433.039,602.641 L 434.272,603.597 L 435.507,604.564 L 436.743,605.539 L 438.393,603.445 L 437.152,602.468 L 435.909,601.496 L 434.665,600.532 L 433.42,599.575 L 432.832,599.127 Z M 441.7,609.541 L 442.899,610.528 L 444.127,611.551 L 445.356,612.583 L 446.577,613.617 L 446.579,613.621 L 448.336,611.613 L 448.316,611.599 L 447.073,610.545 L 445.836,609.505 L 444.597,608.475 L 443.396,607.483 Z "/>
			</g>
		</g>
		<path id="dp_path091" fill="none" fill-rule="evenodd" stroke="#b31408" stroke-width="2.66667" d="M 271.404,513.793 L 456.053,452.853"/>
	</g>
</svg>