<?xml version="1.0" encoding="utf-8"?>
<!-- Generator: Adobe Illustrator 16.0.0, SVG Export Plug-In . SVG Version: 6.00 Build 0)  -->
<!DOCTYPE svg PUBLIC "-//W3C//DTD SVG 1.1//EN" "http://www.w3.org/Graphics/SVG/1.1/DTD/svg11.dtd">
<svg version="1.1" id="Layer_1" xmlns="http://www.w3.org/2000/svg" xmlns:xlink="http://www.w3.org/1999/xlink" x="0px" y="0px"
	 width="252px" height="165.6px" viewBox="0 0 252 165.6" enable-background="new 0 0 252 165.6" xml:space="preserve">
<rect x="115.074" opacity="0.5" fill="#D8E3E6" width="136.926" height="165.6"/>
<rect opacity="0.5" fill="#FEFBF4" width="114.75" height="165.6"/>
<line stroke="#000000" stroke-miterlimit="10" x1="114.75" y1="0" x2="114.75" y2="165.6"/>
<g>
	<line x1="8.25" y1="96.5" x2="235.75" y2="96.5"/>
	<g>
		<line fill="none" stroke="#000000" stroke-miterlimit="10" x1="8.25" y1="96.5" x2="11.25" y2="96.5"/>
		
			<line fill="none" stroke="#000000" stroke-miterlimit="10" stroke-dasharray="5.933,3.9554" x1="15.206" y1="96.5" x2="230.772" y2="96.5"/>
		<line fill="none" stroke="#000000" stroke-miterlimit="10" x1="232.75" y1="96.5" x2="235.75" y2="96.5"/>
	</g>
</g>
<g>
	<path d="M13.535,13.803c0.398,0.688,0.829,1.193,1.292,1.518s0.989,0.51,1.579,0.557v0.188c-0.539-0.02-1.115-0.128-1.729-0.325
		s-1.194-0.471-1.743-0.82s-1.022-0.722-1.421-1.116c-0.562-0.227-1.008-0.467-1.336-0.721c-0.477-0.379-0.847-0.845-1.11-1.397
		s-0.396-1.206-0.396-1.96c0-1.188,0.385-2.174,1.154-2.959s1.701-1.178,2.795-1.178c1.039,0,1.938,0.394,2.698,1.181
		s1.14,1.78,1.14,2.979c0,0.973-0.271,1.826-0.812,2.561S14.402,13.541,13.535,13.803z M12.551,6.039
		c-0.711,0-1.283,0.254-1.717,0.762c-0.547,0.637-0.82,1.611-0.82,2.924c0,1.285,0.277,2.275,0.832,2.971
		c0.43,0.535,0.998,0.803,1.705,0.803c0.734,0,1.326-0.268,1.775-0.803c0.527-0.633,0.791-1.566,0.791-2.801
		c0-0.949-0.145-1.748-0.434-2.396c-0.223-0.5-0.519-0.868-0.888-1.104S13.012,6.039,12.551,6.039z"/>
</g>
<g>
	<path d="M239.961,140.494v2.314c0,0.5,0.055,0.811,0.164,0.932c0.148,0.172,0.373,0.258,0.674,0.258h0.305v0.217h-3.404v-0.217
		h0.299c0.336,0,0.576-0.109,0.721-0.328c0.078-0.121,0.117-0.408,0.117-0.861v-5.133c0-0.5-0.053-0.811-0.158-0.932
		c-0.152-0.172-0.379-0.258-0.68-0.258h-0.299v-0.217h2.912c0.711,0,1.271,0.073,1.682,0.22s0.756,0.394,1.037,0.741
		s0.422,0.76,0.422,1.236c0,0.648-0.214,1.176-0.642,1.582s-1.032,0.609-1.813,0.609c-0.191,0-0.398-0.014-0.621-0.041
		S240.215,140.549,239.961,140.494z M239.961,140.16c0.207,0.039,0.391,0.068,0.551,0.088s0.297,0.029,0.41,0.029
		c0.406,0,0.757-0.157,1.052-0.472s0.442-0.722,0.442-1.222c0-0.344-0.07-0.663-0.211-0.958s-0.34-0.516-0.598-0.662
		s-0.551-0.22-0.879-0.22c-0.199,0-0.455,0.037-0.768,0.111V140.16z"/>
</g>
<g>
	<path d="M120.55,4.29l-0.967,3.423c-0.065,0.231-0.098,0.37-0.098,0.415c0,0.052,0.016,0.094,0.046,0.127s0.067,0.049,0.11,0.049
		c0.049,0,0.107-0.026,0.176-0.078c0.186-0.146,0.373-0.355,0.562-0.625l0.171,0.112c-0.221,0.338-0.482,0.624-0.781,0.854
		c-0.221,0.172-0.433,0.259-0.635,0.259c-0.133,0-0.243-0.04-0.327-0.12s-0.127-0.18-0.127-0.3s0.041-0.321,0.122-0.601l0.635-2.188
		c0.104-0.358,0.156-0.583,0.156-0.674c0-0.072-0.025-0.13-0.076-0.176S119.397,4.7,119.31,4.7c-0.072,0-0.22,0.018-0.444,0.054
		v-0.19L120.55,4.29z M120.486,2.351c0.137,0,0.252,0.047,0.347,0.142s0.142,0.21,0.142,0.347c0,0.133-0.048,0.248-0.144,0.344
		s-0.211,0.144-0.344,0.144s-0.248-0.048-0.344-0.144s-0.144-0.211-0.144-0.344c0-0.137,0.047-0.252,0.142-0.347
		S120.35,2.351,120.486,2.351z"/>
	<path d="M123.235,4.29l-0.649,2.222c0.609-0.908,1.075-1.505,1.399-1.792s0.636-0.43,0.935-0.43c0.163,0,0.297,0.054,0.403,0.161
		s0.159,0.248,0.159,0.42c0,0.195-0.047,0.456-0.142,0.781l-0.596,2.056c-0.068,0.238-0.103,0.382-0.103,0.435
		c0,0.045,0.013,0.084,0.039,0.115s0.054,0.046,0.083,0.046c0.039,0,0.086-0.021,0.142-0.063c0.172-0.137,0.361-0.345,0.566-0.625
		l0.151,0.093c-0.303,0.433-0.589,0.742-0.859,0.928c-0.189,0.127-0.358,0.19-0.508,0.19c-0.121,0-0.216-0.037-0.288-0.11
		s-0.107-0.172-0.107-0.295c0-0.156,0.055-0.425,0.166-0.806l0.566-1.963c0.072-0.244,0.107-0.435,0.107-0.571
		c0-0.065-0.021-0.118-0.063-0.159s-0.094-0.061-0.156-0.061c-0.091,0-0.2,0.039-0.327,0.117c-0.241,0.146-0.492,0.388-0.752,0.725
		s-0.536,0.768-0.825,1.292c-0.153,0.277-0.28,0.58-0.381,0.908l-0.244,0.806h-0.732l0.889-3.057
		c0.104-0.368,0.156-0.589,0.156-0.664c0-0.072-0.028-0.134-0.085-0.188s-0.128-0.081-0.212-0.081c-0.039,0-0.107,0.006-0.205,0.02
		l-0.186,0.029l-0.029-0.176L123.235,4.29z"/>
	<path d="M128.626,3.079l-0.381,1.328h0.767l-0.083,0.308h-0.762l-0.84,2.881c-0.091,0.309-0.137,0.509-0.137,0.601
		c0,0.055,0.013,0.098,0.039,0.127s0.058,0.044,0.093,0.044c0.082,0,0.189-0.057,0.322-0.171c0.078-0.065,0.252-0.265,0.522-0.601
		l0.161,0.122c-0.299,0.436-0.582,0.744-0.85,0.923c-0.182,0.124-0.366,0.186-0.552,0.186c-0.143,0-0.26-0.045-0.352-0.134
		s-0.137-0.204-0.137-0.344c0-0.176,0.052-0.444,0.156-0.806l0.815-2.827h-0.737l0.049-0.19c0.358-0.098,0.655-0.243,0.894-0.437
		s0.503-0.53,0.796-1.008H128.626z"/>
	<path d="M129.998,6.868c-0.023,0.163-0.034,0.298-0.034,0.405c0,0.29,0.103,0.536,0.308,0.74s0.454,0.305,0.747,0.305
		c0.234,0,0.46-0.048,0.677-0.144c0.216-0.096,0.537-0.309,0.964-0.637l0.103,0.142c-0.771,0.765-1.508,1.147-2.207,1.147
		c-0.475,0-0.834-0.15-1.074-0.449s-0.361-0.63-0.361-0.991c0-0.485,0.15-0.981,0.449-1.489s0.676-0.902,1.128-1.184
		s0.918-0.422,1.396-0.422c0.345,0,0.601,0.07,0.767,0.21s0.249,0.306,0.249,0.498c0,0.27-0.107,0.529-0.322,0.776
		c-0.283,0.322-0.7,0.583-1.25,0.781C131.172,6.688,130.658,6.793,129.998,6.868z M130.032,6.628
		c0.481-0.055,0.874-0.15,1.177-0.283c0.4-0.179,0.701-0.393,0.9-0.642c0.201-0.249,0.301-0.486,0.301-0.71
		c0-0.137-0.043-0.248-0.129-0.332c-0.087-0.084-0.209-0.127-0.369-0.127c-0.332,0-0.685,0.177-1.057,0.53
		C130.482,5.417,130.208,5.938,130.032,6.628z"/>
	<path d="M133.768,4.563l1.685-0.273l-0.703,2.373c0.569-0.973,1.087-1.654,1.553-2.041c0.264-0.221,0.479-0.332,0.645-0.332
		c0.107,0,0.192,0.032,0.254,0.095s0.093,0.155,0.093,0.276c0,0.215-0.055,0.42-0.166,0.615c-0.078,0.146-0.19,0.22-0.337,0.22
		c-0.075,0-0.14-0.024-0.192-0.073c-0.055-0.049-0.088-0.124-0.101-0.225c-0.007-0.062-0.021-0.103-0.044-0.122
		c-0.025-0.026-0.057-0.039-0.093-0.039c-0.056,0-0.107,0.013-0.156,0.039c-0.085,0.045-0.214,0.172-0.386,0.381
		c-0.27,0.319-0.562,0.732-0.879,1.24c-0.137,0.215-0.254,0.458-0.352,0.728c-0.137,0.371-0.215,0.594-0.234,0.669l-0.156,0.615
		h-0.747l0.903-3.032c0.104-0.352,0.156-0.602,0.156-0.752c0-0.059-0.024-0.107-0.073-0.146c-0.065-0.052-0.151-0.078-0.259-0.078
		c-0.068,0-0.193,0.015-0.376,0.044L133.768,4.563z"/>
	<path d="M140.101,4.407l-0.088,0.322H139.3l-0.537,2.134c-0.237,0.941-0.478,1.668-0.718,2.183
		c-0.342,0.726-0.709,1.227-1.104,1.504c-0.299,0.211-0.6,0.317-0.898,0.317c-0.195,0-0.361-0.059-0.498-0.176
		c-0.102-0.082-0.151-0.187-0.151-0.317c0-0.104,0.042-0.194,0.124-0.271c0.084-0.077,0.186-0.115,0.306-0.115
		c0.088,0,0.162,0.028,0.222,0.083c0.061,0.055,0.091,0.119,0.091,0.19s-0.034,0.138-0.103,0.2c-0.053,0.045-0.078,0.08-0.078,0.103
		c0,0.029,0.012,0.052,0.034,0.068c0.029,0.023,0.075,0.034,0.137,0.034c0.14,0,0.287-0.044,0.442-0.132
		c0.154-0.088,0.291-0.219,0.412-0.393s0.234-0.426,0.342-0.754c0.045-0.137,0.168-0.587,0.366-1.353l0.85-3.306h-0.85l0.068-0.322
		c0.271,0,0.459-0.019,0.566-0.056s0.206-0.109,0.296-0.215c0.089-0.106,0.205-0.304,0.349-0.593
		c0.192-0.391,0.376-0.693,0.552-0.908c0.24-0.29,0.494-0.507,0.76-0.652c0.265-0.145,0.515-0.217,0.749-0.217
		c0.247,0,0.446,0.062,0.596,0.188s0.225,0.261,0.225,0.408c0,0.114-0.038,0.21-0.112,0.288s-0.171,0.117-0.288,0.117
		c-0.101,0-0.183-0.029-0.247-0.088c-0.062-0.059-0.095-0.128-0.095-0.21c0-0.052,0.021-0.116,0.063-0.193s0.063-0.128,0.063-0.154
		c0-0.045-0.015-0.08-0.044-0.103c-0.043-0.033-0.104-0.049-0.186-0.049c-0.205,0-0.389,0.065-0.552,0.195
		c-0.218,0.172-0.413,0.443-0.586,0.811c-0.088,0.192-0.249,0.669-0.483,1.431H140.101z"/>
	<path d="M144.607,4.29L143.655,7.6l-0.107,0.444c-0.01,0.042-0.015,0.078-0.015,0.107c0,0.052,0.016,0.098,0.049,0.137
		c0.025,0.029,0.059,0.044,0.098,0.044c0.043,0,0.098-0.026,0.166-0.078c0.127-0.094,0.297-0.29,0.508-0.586l0.166,0.117
		c-0.225,0.338-0.455,0.597-0.693,0.774s-0.457,0.266-0.659,0.266c-0.14,0-0.245-0.035-0.315-0.105
		c-0.069-0.07-0.104-0.172-0.104-0.305c0-0.16,0.036-0.37,0.107-0.63l0.103-0.366c-0.426,0.557-0.818,0.946-1.177,1.167
		c-0.257,0.16-0.509,0.239-0.757,0.239c-0.238,0-0.443-0.099-0.615-0.295s-0.259-0.468-0.259-0.813c0-0.518,0.155-1.063,0.466-1.638
		c0.312-0.575,0.706-1.034,1.185-1.379c0.374-0.273,0.728-0.41,1.06-0.41c0.199,0,0.363,0.052,0.496,0.156
		c0.131,0.104,0.231,0.277,0.3,0.518l0.176-0.557L144.607,4.29z M142.869,4.543c-0.209,0-0.43,0.098-0.664,0.293
		c-0.332,0.277-0.627,0.687-0.887,1.23c-0.258,0.543-0.388,1.035-0.388,1.475c0,0.221,0.056,0.396,0.166,0.525
		s0.237,0.193,0.381,0.193c0.354,0,0.741-0.262,1.157-0.786c0.557-0.697,0.835-1.411,0.835-2.144c0-0.277-0.054-0.477-0.161-0.601
		S143.055,4.543,142.869,4.543z"/>
	<path d="M148.777,7.644c-0.338,0.407-0.68,0.706-1.025,0.896s-0.709,0.286-1.094,0.286c-0.463,0-0.822-0.13-1.082-0.391
		c-0.258-0.26-0.388-0.61-0.388-1.05c0-0.498,0.14-0.988,0.417-1.47c0.279-0.482,0.653-0.873,1.123-1.174
		c0.471-0.301,0.932-0.452,1.385-0.452c0.355,0,0.62,0.074,0.796,0.222s0.264,0.33,0.264,0.544c0,0.202-0.062,0.375-0.186,0.518
		c-0.091,0.111-0.204,0.166-0.337,0.166c-0.102,0-0.185-0.033-0.252-0.098c-0.066-0.065-0.1-0.146-0.1-0.244
		c0-0.062,0.012-0.119,0.037-0.171c0.023-0.052,0.074-0.115,0.15-0.188c0.077-0.073,0.123-0.126,0.14-0.159s0.024-0.067,0.024-0.103
		c0-0.068-0.031-0.125-0.093-0.171c-0.095-0.065-0.228-0.098-0.4-0.098c-0.319,0-0.635,0.112-0.947,0.337s-0.579,0.543-0.801,0.957
		c-0.267,0.501-0.4,1.002-0.4,1.504c0,0.332,0.095,0.595,0.283,0.789s0.446,0.291,0.771,0.291c0.251,0,0.499-0.062,0.745-0.188
		c0.245-0.125,0.521-0.353,0.827-0.681L148.777,7.644z"/>
	<path d="M150.545,6.868c-0.023,0.163-0.034,0.298-0.034,0.405c0,0.29,0.103,0.536,0.308,0.74s0.454,0.305,0.747,0.305
		c0.234,0,0.46-0.048,0.677-0.144c0.216-0.096,0.537-0.309,0.964-0.637l0.103,0.142c-0.771,0.765-1.508,1.147-2.207,1.147
		c-0.475,0-0.834-0.15-1.074-0.449s-0.361-0.63-0.361-0.991c0-0.485,0.15-0.981,0.449-1.489s0.676-0.902,1.128-1.184
		s0.918-0.422,1.396-0.422c0.345,0,0.601,0.07,0.767,0.21s0.249,0.306,0.249,0.498c0,0.27-0.107,0.529-0.322,0.776
		c-0.283,0.322-0.7,0.583-1.25,0.781C151.719,6.688,151.205,6.793,150.545,6.868z M150.579,6.628
		c0.481-0.055,0.874-0.15,1.177-0.283c0.4-0.179,0.701-0.393,0.9-0.642c0.201-0.249,0.301-0.486,0.301-0.71
		c0-0.137-0.043-0.248-0.129-0.332c-0.087-0.084-0.209-0.127-0.369-0.127c-0.332,0-0.685,0.177-1.057,0.53
		C151.029,5.417,150.755,5.938,150.579,6.628z"/>
</g>
<g>
	<path d="M10.457,87.956l-0.649,2.222c0.609-0.908,1.075-1.506,1.399-1.792s0.636-0.43,0.935-0.43c0.163,0,0.297,0.054,0.403,0.161
		s0.159,0.248,0.159,0.42c0,0.195-0.047,0.455-0.142,0.781l-0.596,2.056c-0.068,0.237-0.103,0.382-0.103,0.435
		c0,0.045,0.013,0.084,0.039,0.115c0.026,0.03,0.054,0.046,0.083,0.046c0.039,0,0.086-0.021,0.142-0.063
		c0.172-0.137,0.361-0.346,0.566-0.625l0.151,0.093c-0.303,0.433-0.589,0.742-0.859,0.928c-0.189,0.127-0.358,0.19-0.508,0.19
		c-0.121,0-0.216-0.037-0.288-0.109c-0.072-0.074-0.107-0.172-0.107-0.296c0-0.156,0.055-0.425,0.166-0.806l0.566-1.963
		c0.072-0.244,0.107-0.435,0.107-0.571c0-0.065-0.021-0.118-0.063-0.159c-0.042-0.04-0.094-0.061-0.156-0.061
		c-0.091,0-0.2,0.039-0.327,0.117c-0.241,0.146-0.492,0.389-0.752,0.725c-0.26,0.338-0.536,0.768-0.825,1.292
		c-0.153,0.276-0.28,0.579-0.381,0.908l-0.244,0.806H8.44l0.889-3.057c0.104-0.367,0.156-0.59,0.156-0.664
		c0-0.072-0.028-0.135-0.085-0.188c-0.057-0.055-0.128-0.081-0.212-0.081c-0.039,0-0.107,0.007-0.205,0.02l-0.186,0.029
		l-0.029-0.176L10.457,87.956z"/>
	<path d="M17.874,89.484c0,0.488-0.129,0.972-0.388,1.45s-0.619,0.858-1.082,1.138s-0.912,0.42-1.348,0.42
		c-0.446,0-0.81-0.143-1.091-0.428c-0.282-0.284-0.422-0.652-0.422-1.105c0-0.479,0.138-0.959,0.413-1.44s0.643-0.862,1.104-1.143
		s0.906-0.42,1.335-0.42s0.784,0.142,1.062,0.425S17.874,89.031,17.874,89.484z M17.063,89.147c0-0.303-0.074-0.534-0.222-0.696
		c-0.148-0.16-0.339-0.241-0.574-0.241c-0.479,0-0.919,0.343-1.321,1.028c-0.402,0.685-0.603,1.365-0.603,2.043
		c0,0.309,0.078,0.548,0.234,0.715c0.156,0.168,0.353,0.252,0.591,0.252c0.459,0,0.89-0.341,1.292-1.023
		C16.862,90.543,17.063,89.851,17.063,89.147z"/>
	<path d="M18.772,88.229l1.685-0.273l-0.703,2.373c0.57-0.974,1.087-1.653,1.553-2.041c0.264-0.222,0.479-0.332,0.645-0.332
		c0.107,0,0.192,0.032,0.254,0.095c0.062,0.064,0.093,0.156,0.093,0.276c0,0.215-0.055,0.42-0.166,0.615
		c-0.078,0.146-0.19,0.22-0.337,0.22c-0.075,0-0.139-0.024-0.193-0.073s-0.087-0.124-0.1-0.225
		c-0.006-0.062-0.021-0.103-0.044-0.122c-0.026-0.025-0.057-0.039-0.093-0.039c-0.055,0-0.107,0.014-0.156,0.039
		c-0.084,0.045-0.213,0.172-0.386,0.381c-0.27,0.318-0.563,0.732-0.879,1.24c-0.137,0.215-0.254,0.457-0.352,0.728
		c-0.137,0.371-0.215,0.595-0.234,0.669l-0.156,0.615h-0.747l0.903-3.032c0.104-0.352,0.156-0.603,0.156-0.752
		c0-0.059-0.024-0.107-0.073-0.146c-0.065-0.052-0.151-0.078-0.259-0.078c-0.068,0-0.194,0.015-0.376,0.044L18.772,88.229z"/>
	<path d="M24.31,87.956l-0.635,2.202c0.283-0.518,0.524-0.906,0.723-1.167c0.309-0.403,0.61-0.696,0.903-0.879
		c0.172-0.104,0.353-0.156,0.542-0.156c0.163,0,0.298,0.052,0.405,0.156s0.161,0.237,0.161,0.4c0,0.159-0.038,0.368-0.112,0.625
		l-0.347,1.24c0.531-0.993,1.034-1.689,1.509-2.09c0.264-0.222,0.524-0.332,0.781-0.332c0.15,0,0.272,0.052,0.369,0.153
		c0.096,0.104,0.144,0.262,0.144,0.477c0,0.189-0.029,0.389-0.088,0.601l-0.537,1.899c-0.117,0.414-0.176,0.643-0.176,0.688
		s0.015,0.085,0.044,0.117c0.02,0.022,0.045,0.034,0.078,0.034s0.089-0.031,0.171-0.093c0.186-0.144,0.36-0.332,0.522-0.566
		l0.161,0.103c-0.082,0.131-0.226,0.309-0.432,0.537s-0.383,0.383-0.53,0.464s-0.282,0.122-0.405,0.122
		c-0.114,0-0.209-0.039-0.286-0.117s-0.115-0.174-0.115-0.288c0-0.156,0.067-0.47,0.2-0.942l0.444-1.567
		c0.101-0.361,0.155-0.562,0.161-0.601c0.01-0.062,0.015-0.122,0.015-0.181c0-0.081-0.018-0.146-0.054-0.19
		c-0.039-0.045-0.083-0.068-0.132-0.068c-0.137,0-0.282,0.07-0.435,0.21c-0.449,0.413-0.869,0.993-1.26,1.738
		c-0.257,0.491-0.498,1.122-0.723,1.89h-0.737l0.835-2.954c0.091-0.319,0.137-0.532,0.137-0.64c0-0.088-0.018-0.152-0.054-0.195
		s-0.08-0.063-0.132-0.063c-0.107,0-0.221,0.039-0.342,0.117c-0.195,0.127-0.447,0.399-0.754,0.815s-0.546,0.815-0.715,1.196
		c-0.082,0.179-0.275,0.753-0.581,1.724h-0.723l0.903-3.164l0.117-0.41c0.023-0.062,0.034-0.107,0.034-0.137
		c0-0.072-0.033-0.136-0.098-0.193c-0.065-0.057-0.148-0.085-0.249-0.085c-0.042,0-0.16,0.02-0.352,0.059l-0.044-0.181L24.31,87.956
		z"/>
	<path d="M34.056,87.956l-0.952,3.311l-0.107,0.444c-0.01,0.043-0.015,0.078-0.015,0.107c0,0.053,0.016,0.098,0.049,0.137
		c0.026,0.029,0.059,0.044,0.098,0.044c0.042,0,0.098-0.026,0.166-0.078c0.127-0.095,0.296-0.29,0.508-0.586l0.166,0.117
		c-0.225,0.339-0.456,0.597-0.693,0.774c-0.238,0.177-0.458,0.266-0.659,0.266c-0.14,0-0.245-0.035-0.315-0.105
		c-0.07-0.069-0.105-0.172-0.105-0.305c0-0.16,0.036-0.369,0.107-0.63l0.103-0.366c-0.426,0.557-0.819,0.945-1.177,1.167
		c-0.257,0.159-0.509,0.239-0.757,0.239c-0.238,0-0.443-0.099-0.615-0.295c-0.172-0.197-0.259-0.469-0.259-0.813
		c0-0.518,0.155-1.063,0.466-1.638c0.311-0.575,0.706-1.035,1.184-1.38c0.375-0.273,0.728-0.41,1.06-0.41
		c0.199,0,0.364,0.052,0.496,0.156s0.232,0.276,0.3,0.518l0.176-0.557L34.056,87.956z M32.317,88.21
		c-0.208,0-0.43,0.098-0.664,0.293c-0.332,0.276-0.627,0.687-0.886,1.23s-0.388,1.035-0.388,1.475c0,0.222,0.055,0.396,0.166,0.524
		c0.111,0.129,0.238,0.193,0.381,0.193c0.355,0,0.741-0.262,1.157-0.786c0.557-0.696,0.835-1.411,0.835-2.144
		c0-0.277-0.054-0.477-0.161-0.601S32.503,88.21,32.317,88.21z"/>
	<path d="M37.337,85.432l-1.67,5.811c-0.082,0.289-0.122,0.467-0.122,0.532c0,0.049,0.016,0.089,0.046,0.122
		s0.069,0.049,0.115,0.049c0.062,0,0.128-0.027,0.2-0.083c0.169-0.134,0.347-0.341,0.532-0.62l0.146,0.151
		c-0.309,0.437-0.594,0.741-0.854,0.913c-0.192,0.123-0.375,0.186-0.547,0.186c-0.124,0-0.227-0.043-0.31-0.127
		s-0.125-0.182-0.125-0.293c0-0.117,0.052-0.357,0.156-0.723l1.323-4.58c0.107-0.375,0.161-0.59,0.161-0.645
		c0-0.078-0.031-0.143-0.093-0.193c-0.062-0.05-0.158-0.075-0.288-0.075c-0.075,0-0.189,0.011-0.342,0.034V85.71L37.337,85.432z"/>
</g>
<g>
	<path d="M109.139,98.338c1.031,0,1.925,0.392,2.681,1.175s1.134,1.761,1.134,2.933c0,1.207-0.381,2.209-1.143,3.006
		s-1.684,1.195-2.766,1.195c-1.094,0-2.013-0.389-2.757-1.166s-1.116-1.783-1.116-3.018c0-1.262,0.43-2.291,1.289-3.088
		C107.207,98.684,108.1,98.338,109.139,98.338z M109.027,98.766c-0.711,0-1.281,0.264-1.711,0.791
		c-0.535,0.656-0.803,1.617-0.803,2.883c0,1.297,0.277,2.295,0.832,2.994c0.426,0.531,0.988,0.797,1.688,0.797
		c0.746,0,1.362-0.291,1.849-0.873s0.729-1.5,0.729-2.754c0-1.359-0.268-2.373-0.803-3.041
		C110.379,99.031,109.785,98.766,109.027,98.766z"/>
</g>
<g>
	<path d="M84.398,27.472l-0.779,2.666c0.73-1.09,1.29-1.807,1.679-2.15s0.763-0.516,1.122-0.516c0.195,0,0.356,0.064,0.483,0.193
		s0.19,0.297,0.19,0.504c0,0.234-0.057,0.547-0.17,0.938l-0.715,2.467c-0.082,0.285-0.123,0.459-0.123,0.521
		c0,0.055,0.016,0.101,0.047,0.138s0.064,0.056,0.1,0.056c0.047,0,0.104-0.025,0.17-0.076c0.207-0.164,0.434-0.414,0.68-0.75
		l0.182,0.111c-0.363,0.52-0.707,0.891-1.031,1.113c-0.227,0.152-0.43,0.229-0.609,0.229c-0.145,0-0.26-0.044-0.346-0.132
		s-0.129-0.206-0.129-0.354c0-0.188,0.066-0.51,0.199-0.967l0.68-2.355c0.086-0.293,0.129-0.521,0.129-0.686
		c0-0.078-0.025-0.142-0.076-0.19s-0.113-0.073-0.188-0.073c-0.109,0-0.24,0.047-0.393,0.141c-0.289,0.176-0.59,0.466-0.902,0.87
		s-0.643,0.921-0.99,1.55c-0.184,0.332-0.336,0.695-0.457,1.09l-0.293,0.967h-0.879l1.066-3.668
		c0.125-0.441,0.188-0.707,0.188-0.797c0-0.086-0.034-0.161-0.103-0.226s-0.153-0.097-0.255-0.097c-0.047,0-0.129,0.008-0.246,0.023
		l-0.223,0.035l-0.035-0.211L84.398,27.472z"/>
	<path d="M88.57,32.593l1.127-0.55h0.113v3.911c0,0.26,0.011,0.421,0.032,0.485c0.021,0.064,0.066,0.113,0.135,0.147
		s0.208,0.054,0.417,0.058v0.126h-1.742v-0.126c0.219-0.004,0.36-0.023,0.423-0.056c0.064-0.033,0.108-0.078,0.133-0.133
		c0.025-0.056,0.038-0.223,0.038-0.5v-2.5c0-0.337-0.011-0.553-0.034-0.649c-0.016-0.073-0.045-0.126-0.087-0.161
		s-0.093-0.051-0.152-0.051c-0.084,0-0.202,0.035-0.352,0.106L88.57,32.593z"/>
</g>
<g>
	<path d="M149.648,27.472l-0.779,2.666c0.73-1.09,1.29-1.807,1.679-2.15s0.763-0.516,1.122-0.516c0.195,0,0.356,0.064,0.483,0.193
		s0.19,0.297,0.19,0.504c0,0.234-0.057,0.547-0.17,0.938l-0.715,2.467c-0.082,0.285-0.123,0.459-0.123,0.521
		c0,0.055,0.016,0.101,0.047,0.138s0.064,0.056,0.1,0.056c0.047,0,0.104-0.025,0.17-0.076c0.207-0.164,0.434-0.414,0.68-0.75
		l0.182,0.111c-0.363,0.52-0.707,0.891-1.031,1.113c-0.227,0.152-0.43,0.229-0.609,0.229c-0.145,0-0.26-0.044-0.346-0.132
		s-0.129-0.206-0.129-0.354c0-0.188,0.066-0.51,0.199-0.967l0.68-2.355c0.086-0.293,0.129-0.521,0.129-0.686
		c0-0.078-0.025-0.142-0.076-0.19s-0.113-0.073-0.188-0.073c-0.109,0-0.24,0.047-0.393,0.141c-0.289,0.176-0.59,0.466-0.902,0.87
		s-0.643,0.921-0.99,1.55c-0.184,0.332-0.336,0.695-0.457,1.09l-0.293,0.967h-0.879l1.066-3.668
		c0.125-0.441,0.188-0.707,0.188-0.797c0-0.086-0.034-0.161-0.103-0.226s-0.153-0.097-0.255-0.097c-0.047,0-0.129,0.008-0.246,0.023
		l-0.223,0.035l-0.035-0.211L149.648,27.472z"/>
	<path d="M156.207,35.879l-0.324,0.892h-2.732v-0.126c0.804-0.733,1.369-1.332,1.697-1.797c0.328-0.464,0.492-0.889,0.492-1.274
		c0-0.294-0.09-0.535-0.27-0.724s-0.396-0.284-0.646-0.284c-0.227,0-0.432,0.066-0.612,0.2s-0.315,0.329-0.401,0.586h-0.127
		c0.057-0.421,0.203-0.745,0.439-0.97c0.235-0.226,0.529-0.338,0.883-0.338c0.376,0,0.689,0.121,0.941,0.362
		c0.252,0.242,0.377,0.526,0.377,0.854c0,0.235-0.055,0.469-0.164,0.704c-0.168,0.369-0.441,0.76-0.819,1.172
		c-0.567,0.62-0.921,0.993-1.062,1.121h1.21c0.245,0,0.418-0.009,0.517-0.027c0.099-0.019,0.188-0.055,0.269-0.111
		c0.08-0.056,0.148-0.135,0.208-0.237H156.207z"/>
</g>
<g>
	<path d="M128.08,54.472c0.191,0.203,0.336,0.406,0.434,0.609c0.07,0.141,0.186,0.51,0.346,1.107l0.516-0.773
		c0.137-0.188,0.303-0.366,0.498-0.536s0.367-0.286,0.516-0.349c0.094-0.039,0.197-0.059,0.311-0.059
		c0.168,0,0.302,0.045,0.401,0.135s0.149,0.199,0.149,0.328c0,0.148-0.029,0.25-0.088,0.305c-0.109,0.098-0.234,0.146-0.375,0.146
		c-0.082,0-0.17-0.018-0.264-0.053c-0.184-0.062-0.307-0.094-0.369-0.094c-0.094,0-0.205,0.055-0.334,0.164
		c-0.242,0.203-0.531,0.596-0.867,1.178l0.48,2.016c0.074,0.309,0.137,0.493,0.188,0.554s0.102,0.091,0.152,0.091
		c0.082,0,0.178-0.045,0.287-0.135c0.215-0.18,0.398-0.414,0.551-0.703l0.205,0.105c-0.246,0.461-0.559,0.844-0.938,1.148
		c-0.215,0.172-0.396,0.258-0.545,0.258c-0.219,0-0.393-0.123-0.521-0.369c-0.082-0.152-0.252-0.809-0.51-1.969
		c-0.609,1.059-1.098,1.74-1.465,2.045c-0.238,0.195-0.469,0.293-0.691,0.293c-0.156,0-0.299-0.057-0.428-0.17
		c-0.094-0.086-0.141-0.201-0.141-0.346c0-0.129,0.043-0.236,0.129-0.322s0.191-0.129,0.316-0.129s0.258,0.062,0.398,0.188
		c0.102,0.09,0.18,0.135,0.234,0.135c0.047,0,0.107-0.031,0.182-0.094c0.184-0.148,0.434-0.469,0.75-0.961s0.523-0.848,0.621-1.066
		c-0.242-0.949-0.373-1.451-0.393-1.506c-0.09-0.254-0.207-0.434-0.352-0.539s-0.357-0.158-0.639-0.158
		c-0.09,0-0.193,0.004-0.311,0.012v-0.211L128.08,54.472z"/>
</g>
<g>
	<path d="M245.068,67.943l-2.004,6.973c-0.098,0.348-0.146,0.561-0.146,0.639c0,0.059,0.019,0.107,0.056,0.146
		s0.083,0.059,0.138,0.059c0.074,0,0.154-0.033,0.24-0.1c0.203-0.16,0.416-0.408,0.639-0.744l0.176,0.182
		c-0.371,0.523-0.713,0.889-1.025,1.096c-0.23,0.148-0.449,0.223-0.656,0.223c-0.148,0-0.272-0.051-0.372-0.152
		s-0.149-0.219-0.149-0.352c0-0.141,0.062-0.43,0.188-0.867l1.588-5.496c0.129-0.449,0.193-0.707,0.193-0.773
		c0-0.094-0.037-0.171-0.111-0.231s-0.189-0.091-0.346-0.091c-0.09,0-0.227,0.014-0.41,0.041v-0.217L245.068,67.943z"/>
</g>
<g>
	<path d="M69.131,151.723l-1.143,3.973l-0.129,0.533c-0.012,0.051-0.018,0.094-0.018,0.129c0,0.062,0.02,0.117,0.059,0.164
		c0.031,0.035,0.07,0.053,0.117,0.053c0.051,0,0.117-0.031,0.199-0.094c0.152-0.113,0.355-0.348,0.609-0.703l0.199,0.141
		c-0.27,0.406-0.547,0.715-0.832,0.928s-0.549,0.32-0.791,0.32c-0.168,0-0.294-0.043-0.378-0.127s-0.126-0.205-0.126-0.365
		c0-0.191,0.043-0.443,0.129-0.756l0.123-0.439c-0.512,0.668-0.982,1.135-1.412,1.4c-0.309,0.191-0.611,0.287-0.908,0.287
		c-0.285,0-0.531-0.119-0.738-0.355s-0.311-0.561-0.311-0.975c0-0.621,0.187-1.277,0.56-1.967s0.847-1.24,1.421-1.654
		c0.449-0.328,0.873-0.492,1.271-0.492c0.238,0,0.437,0.062,0.595,0.188s0.278,0.332,0.36,0.621l0.211-0.668L69.131,151.723z
		 M67.045,152.027c-0.25,0-0.516,0.117-0.797,0.352c-0.398,0.332-0.753,0.824-1.063,1.477s-0.466,1.242-0.466,1.77
		c0,0.266,0.066,0.475,0.199,0.629s0.285,0.232,0.457,0.232c0.426,0,0.889-0.314,1.389-0.943c0.668-0.836,1.002-1.693,1.002-2.572
		c0-0.332-0.064-0.572-0.193-0.721S67.268,152.027,67.045,152.027z"/>
</g>
<g>
	<path d="M175.213,148.693l-1.154,4.049c0.375-0.391,0.702-0.658,0.981-0.803s0.571-0.217,0.876-0.217
		c0.43,0,0.781,0.143,1.055,0.428s0.41,0.672,0.41,1.16c0,0.629-0.18,1.254-0.539,1.877s-0.811,1.109-1.354,1.457
		s-1.078,0.521-1.605,0.521c-0.59,0-1.195-0.221-1.816-0.662l1.781-6.135c0.137-0.473,0.205-0.75,0.205-0.832
		c0-0.102-0.031-0.178-0.094-0.229c-0.09-0.07-0.223-0.105-0.398-0.105c-0.082,0-0.207,0.014-0.375,0.041v-0.223L175.213,148.693z
		 M172.945,156.568c0.391,0.215,0.734,0.322,1.031,0.322c0.344,0,0.7-0.127,1.069-0.379s0.689-0.676,0.961-1.273
		s0.407-1.201,0.407-1.811c0-0.359-0.089-0.641-0.267-0.844s-0.388-0.305-0.63-0.305c-0.363,0-0.719,0.145-1.066,0.436
		s-0.596,0.697-0.744,1.217L172.945,156.568z"/>
</g>
<path fill="none" stroke="#000000" stroke-width="0.5" stroke-miterlimit="10" d="M170.904,114.703
	c1.932-5.726,3.012-11.844,3.091-18.203"/>
<path fill="none" stroke="#000000" stroke-width="0.5" stroke-miterlimit="10" d="M70.269,56.609
	C61.076,67.048,55.5,80.748,55.5,95.75c0,0.25,0.002,0.5,0.005,0.75"/>
<g>
	<path d="M180.055,101.973c0.66,0,1.217,0.386,1.67,1.157s0.68,1.776,0.68,3.015c0,1.336-0.244,2.389-0.732,3.158
		s-1.053,1.154-1.693,1.154c-0.629,0-1.183-0.374-1.661-1.122s-0.718-1.763-0.718-3.044c0-1.285,0.237-2.326,0.712-3.123
		S179.367,101.973,180.055,101.973z M181.314,106.016c0-2.469-0.434-3.703-1.301-3.703c-0.891,0-1.336,1.234-1.336,3.703H181.314z
		 M178.678,106.379c0,1.277,0.119,2.22,0.357,2.827s0.559,0.911,0.961,0.911c0.871,0,1.311-1.246,1.318-3.738H178.678z"/>
	<path d="M186.08,113.397l-0.324,0.892h-2.732v-0.127c0.804-0.732,1.369-1.332,1.697-1.797c0.328-0.464,0.492-0.889,0.492-1.273
		c0-0.294-0.09-0.535-0.27-0.725c-0.18-0.188-0.396-0.283-0.646-0.283c-0.227,0-0.432,0.066-0.612,0.199
		c-0.181,0.134-0.315,0.329-0.401,0.586h-0.127c0.057-0.421,0.203-0.744,0.439-0.97c0.235-0.226,0.529-0.338,0.883-0.338
		c0.376,0,0.689,0.12,0.941,0.362c0.252,0.241,0.377,0.525,0.377,0.854c0,0.234-0.055,0.469-0.164,0.703
		c-0.168,0.369-0.441,0.76-0.819,1.172c-0.567,0.62-0.921,0.993-1.062,1.121h1.21c0.245,0,0.418-0.01,0.517-0.027
		c0.099-0.019,0.188-0.055,0.269-0.111c0.08-0.056,0.148-0.135,0.208-0.237H186.08z"/>
</g>
<g>
	<path d="M49.305,62.746c0.66,0,1.217,0.386,1.67,1.157s0.68,1.776,0.68,3.015c0,1.336-0.244,2.389-0.732,3.158
		s-1.053,1.154-1.693,1.154c-0.629,0-1.183-0.374-1.661-1.122s-0.718-1.763-0.718-3.044c0-1.285,0.237-2.326,0.712-3.123
		S48.617,62.746,49.305,62.746z M50.564,66.789c0-2.469-0.434-3.703-1.301-3.703c-0.891,0-1.336,1.234-1.336,3.703H50.564z
		 M47.928,67.152c0,1.277,0.119,2.22,0.357,2.827s0.559,0.911,0.961,0.911c0.871,0,1.311-1.246,1.318-3.738H47.928z"/>
	<path d="M52.943,70.885l1.127-0.55h0.113v3.911c0,0.26,0.011,0.421,0.032,0.485c0.021,0.064,0.066,0.113,0.135,0.147
		s0.208,0.054,0.417,0.058v0.126h-1.742v-0.126c0.219-0.004,0.36-0.023,0.423-0.056c0.064-0.033,0.108-0.078,0.133-0.133
		c0.025-0.056,0.038-0.223,0.038-0.5v-2.5c0-0.337-0.011-0.553-0.034-0.649c-0.016-0.073-0.045-0.126-0.087-0.161
		s-0.093-0.051-0.152-0.051c-0.084,0-0.202,0.035-0.352,0.106L52.943,70.885z"/>
</g>
<polyline fill="none" stroke="#000000" stroke-miterlimit="10" points="233.5,11.75 236.75,11.75 236.75,134.75 233.5,134.75 "/>
<polyline fill="none" stroke="#000000" stroke-miterlimit="10" points="232.5,135.875 232.5,139.125 116.25,139.125 116.25,135.875 
	"/>
<polyline fill="none" stroke="#000000" stroke-miterlimit="10" points="113.375,135.875 113.375,139.125 19.25,139.125 
	19.25,135.875 "/>
<polygon fill="#ED1C24" points="47.629,31.889 52.396,40.531 43.203,36.939 "/>
<polygon fill="#ED1C24" points="217.918,126.325 225.668,132.44 215.8,132.698 "/>
<polyline fill="none" stroke="#000000" stroke-miterlimit="10" points="118.25,11.75 121.5,11.75 121.5,95.167 118.25,95.167 "/>
<line fill="none" stroke="#ED1C24" stroke-miterlimit="10" x1="20.25" y1="11.75" x2="114.75" y2="96.5"/>
<line fill="none" stroke="#ED1C24" stroke-miterlimit="10" x1="114.75" y1="96.5" x2="232.75" y2="134.75"/>
</svg>
