<?xml version="1.0" encoding="UTF-8" standalone="no"?>
<!-- Created with Serif DrawPlus 11, 0, 3, 23 (Feb 25, 14:12:55) (http://www.serif.com) -->
<svg version="1.1" xmlns="http://www.w3.org/2000/svg" xmlns:xlink="http://www.w3.org/1999/xlink" width="353.521" height="288.579">
	<g id="dp_group001" transform="matrix(1,0,0,1,-106.533,-302.252)">
		<path id="dp_path002" fill="none" fill-rule="evenodd" stroke="#02a73c" stroke-width="1.33333" d="M 459.472,302.581 C 379.631,450.131 271.159,535.488 106.664,499.136"/>
		<path id="dp_path003" fill="none" fill-rule="evenodd" stroke="black" stroke-width="1.33333" d="M 309.692,452.708 L 324.947,444.536 L 332.697,459.004 L 317.444,467.176 Z "/>
		<g id="dp_group004">
			<g id="dp_group005">
				<path id="dp_path006" fill="#2603b3" fill-rule="evenodd" d="M 285.995,371.193 L 289.544,369.349 L 296.644,365.663 L 278.553,352.521 L 278.895,374.88 Z "/>
				<path id="dp_path007" fill="#2603b3" d="M 332.875,452.792 L 289.545,369.349 L 285.996,371.192 L 329.325,454.635 Z "/>
			</g>
		</g>
		<g id="dp_group008">
			<g id="dp_group009">
				<path id="dp_path010" fill="#2603b3" fill-rule="evenodd" d="M 335.423,545.448 L 331.423,545.459 L 323.423,545.48 L 333.475,565.453 L 343.423,545.427 Z "/>
				<path id="dp_path011" fill="#2603b3" d="M 331.199,458.381 L 331.421,545.459 L 335.421,545.448 L 335.199,458.371 Z "/>
			</g>
		</g>
		<path id="dp_path012" fill="#fc7e00" fill-rule="evenodd" stroke="none" stroke-width="4" d="M 332.393,444.027 C 339.684,444.027 345.593,449.936 345.593,457.227 C 345.593,464.517 339.684,470.427 332.393,470.427 C 325.103,470.427 319.193,464.517 319.193,457.227 C 319.193,449.936 325.103,444.027 332.393,444.027 Z "/>
		<text id="dp_text001" transform="matrix(1,0,0,1,325.624,463.84)" xml:space="preserve" fill="black" font-family="Arial" font-size="17" font-weight="400" font-style="italic" x="0" y="0">m </text>
		<text id="dp_text002" transform="matrix(1,0,0,1,268.36,348.093)" xml:space="preserve" fill="#2603b3" font-family="Arial" font-size="21" font-weight="700" x="0" y="0">C </text>
		<text id="dp_text003" transform="matrix(1,0,0,1,326.459,585.653)" xml:space="preserve" fill="#2603b3" font-family="Arial" font-size="21" font-weight="700" x="0" y="0">N </text>
		<g id="dp_group016">
			<g id="dp_group017">
				<path id="dp_path018" fill="black" fill-rule="evenodd" d="M 310.172,473.508 L 309.163,471.781 L 307.143,468.329 L 301.036,477.695 L 312.192,476.96 Z "/>
				<path id="dp_path019" fill="black" d="M 321.952,464.299 L 309.161,471.781 L 310.172,473.507 L 322.963,466.024 Z "/>
			</g>
		</g>
		<g id="dp_group020">
			<g id="dp_group021">
				<path id="dp_path022" fill="#077125" fill-rule="evenodd" d="M 351.025,444.449 L 350.176,443.421 L 348.476,441.365 L 345.463,448.183 L 352.724,446.504 Z "/>
				<path id="dp_path023" fill="#077125" d="M 458.887,302.264 L 458.121,303.675 L 457.356,305.08 L 456.588,306.481 L 455.819,307.879 L 455.047,309.272 L 454.273,310.663 L 453.497,312.048 L 452.721,313.431 L 451.943,314.809 L 451.163,316.183 L 450.381,317.553 L 449.596,318.92 L 448.812,320.283 L 448.023,321.641 L 447.235,322.996 L 446.443,324.347 L 445.649,325.693 L 444.855,327.036 L 444.059,328.375 L 443.26,329.709 L 442.459,331.04 L 441.657,332.367 L 440.853,333.689 L 440.047,335.008 L 439.24,336.323 L 438.431,337.633 L 437.617,338.939 L 436.805,340.241 L 435.988,341.539 L 435.172,342.833 L 434.353,344.123 L 433.532,345.408 L 432.708,346.689 L 431.884,347.967 L 431.056,349.24 L 430.228,350.509 L 429.397,351.772 L 428.565,353.032 L 427.729,354.288 L 426.893,355.54 L 426.056,356.788 L 425.216,358.031 L 424.372,359.271 L 423.528,360.505 L 422.683,361.736 L 421.835,362.96 L 420.984,364.183 L 420.131,365.4 L 419.277,366.613 L 418.421,367.821 L 417.563,369.025 L 416.701,370.225 L 415.84,371.42 L 414.976,372.611 L 414.109,373.797 L 413.241,374.98 L 412.371,376.157 L 411.499,377.331 L 410.624,378.499 L 409.748,379.663 L 408.868,380.823 L 407.988,381.979 L 407.105,383.128 L 406.22,384.275 L 405.333,385.416 L 404.445,386.553 L 403.553,387.687 L 402.661,388.813 L 401.765,389.936 L 400.868,391.056 L 399.969,392.169 L 399.067,393.28 L 398.164,394.384 L 397.257,395.484 L 396.349,396.58 L 395.44,397.671 L 394.528,398.756 L 393.613,399.837 L 392.696,400.915 L 391.777,401.985 L 390.856,403.053 L 389.935,404.116 L 389.009,405.175 L 388.081,406.227 L 387.152,407.275 L 386.22,408.319 L 385.287,409.357 L 384.349,410.391 L 383.413,411.42 L 382.472,412.444 L 381.529,413.463 L 380.584,414.477 L 379.637,415.487 L 378.688,416.491 L 377.736,417.491 L 376.781,418.487 L 375.825,419.477 L 374.868,420.461 L 373.907,421.441 L 372.944,422.417 L 371.979,423.387 L 371.012,424.352 L 370.041,425.312 L 369.071,426.267 L 368.096,427.217 L 367.119,428.163 L 366.14,429.103 L 365.159,430.039 L 364.176,430.968 L 363.189,431.893 L 362.203,432.813 L 361.211,433.727 L 360.217,434.637 L 359.224,435.543 L 358.225,436.441 L 357.227,437.336 L 356.224,438.225 L 355.22,439.109 L 354.213,439.988 L 353.203,440.863 L 352.192,441.729 L 351.18,442.591 L 350.175,443.421 L 351.025,444.448 L 352.036,443.612 L 353.056,442.743 L 354.072,441.871 L 355.085,440.993 L 356.097,440.112 L 357.107,439.223 L 358.112,438.331 L 359.116,437.433 L 360.117,436.529 L 361.116,435.621 L 362.112,434.708 L 363.107,433.789 L 364.099,432.867 L 365.088,431.936 L 366.076,431.004 L 367.06,430.065 L 368.044,429.12 L 369.024,428.172 L 370.001,427.219 L 370.977,426.259 L 371.951,425.296 L 372.92,424.328 L 373.891,423.353 L 374.856,422.375 L 375.82,421.392 L 376.783,420.403 L 377.741,419.409 L 378.699,418.411 L 379.653,417.408 L 380.605,416.399 L 381.557,415.387 L 382.505,414.369 L 383.451,413.345 L 384.395,412.319 L 385.336,411.287 L 386.276,410.248 L 387.212,409.207 L 388.147,408.16 L 389.079,407.109 L 390.009,406.052 L 390.937,404.991 L 391.864,403.925 L 392.788,402.855 L 393.709,401.779 L 394.629,400.699 L 395.547,399.615 L 396.461,398.524 L 397.373,397.431 L 398.284,396.332 L 399.193,395.229 L 400.099,394.12 L 401.004,393.007 L 401.905,391.891 L 402.805,390.768 L 403.704,389.643 L 404.599,388.511 L 405.493,387.375 L 406.384,386.235 L 407.273,385.091 L 408.161,383.941 L 409.047,382.787 L 409.929,381.628 L 410.809,380.465 L 411.688,379.299 L 412.565,378.125 L 413.44,376.949 L 414.313,375.769 L 415.184,374.584 L 416.053,373.395 L 416.92,372.201 L 417.784,371.001 L 418.645,369.799 L 419.507,368.592 L 420.365,367.381 L 421.221,366.165 L 422.075,364.945 L 422.928,363.72 L 423.779,362.491 L 424.627,361.257 L 425.473,360.02 L 426.317,358.777 L 427.16,357.532 L 428,356.281 L 428.839,355.027 L 429.675,353.768 L 430.509,352.505 L 431.343,351.237 L 432.173,349.965 L 433.001,348.689 L 433.828,347.409 L 434.652,346.125 L 435.476,344.837 L 436.297,343.545 L 437.116,342.248 L 437.933,340.948 L 438.748,339.643 L 439.561,338.335 L 440.373,337.021 L 441.183,335.704 L 441.989,334.383 L 442.796,333.057 L 443.6,331.728 L 444.401,330.395 L 445.203,329.057 L 446.001,327.716 L 446.796,326.371 L 447.592,325.021 L 448.384,323.668 L 449.175,322.311 L 449.964,320.949 L 450.751,319.584 L 451.536,318.215 L 452.32,316.841 L 453.103,315.465 L 453.881,314.084 L 454.66,312.699 L 455.436,311.311 L 456.212,309.917 L 456.984,308.521 L 457.756,307.121 L 458.524,305.717 L 459.292,304.309 L 460.057,302.899 Z "/>
			</g>
		</g>
		<text id="dp_text004" transform="matrix(1,0,0,1,377.397,432.508)" xml:space="preserve" fill="#077125" font-family="Arial" font-size="17" font-weight="400" font-style="italic" x="0" y="0">q </text>
		<text id="dp_text005" transform="matrix(1,0,0,1,154.68,528.829)" xml:space="preserve" fill="#077125" font-family="Arial" font-size="17" font-weight="400" font-style="italic" x="0" y="0">f</text>
		<text id="dp_text006" transform="matrix(1,0,0,1,154.68,528.829)" xml:space="preserve" fill="#077125" font-family="Arial" font-size="17" font-weight="400" x="4.808" y="0">(</text>
		<text id="dp_text007" transform="matrix(1,0,0,1,154.68,528.829)" xml:space="preserve" fill="#077125" font-family="Arial" font-size="17" font-weight="400" font-style="italic" x="10.5853" y="0">x</text>
		<text id="dp_text008" transform="matrix(1,0,0,1,154.68,528.829)" xml:space="preserve" fill="#077125" font-family="Arial" font-size="17" font-weight="400" x="19.2747" y="0">,</text>
		<text id="dp_text009" transform="matrix(1,0,0,1,154.68,528.829)" xml:space="preserve" fill="#077125" font-family="Arial" font-size="17" font-weight="400" font-style="italic" x="24.0827" y="0">y</text>
		<text id="dp_text010" transform="matrix(1,0,0,1,154.68,528.829)" xml:space="preserve" fill="#077125" font-family="Arial" font-size="17" font-weight="400" x="32.772" y="0">)=0 </text>
		<g id="dp_group031">
			<g id="dp_group032">
				<path id="dp_path033" fill="black" fill-rule="evenodd" d="M 305.701,457.893 L 305.701,456.56 L 307.035,453.893 L 301.035,457.227 L 307.035,460.56 Z "/>
				<path id="dp_path034" fill="black" d="M 319.193,456.56 L 305.701,456.56 L 305.701,457.893 L 319.193,457.893 Z "/>
			</g>
		</g>
		<g id="dp_group035">
			<g id="dp_group036">
				<path id="dp_path037" fill="black" fill-rule="evenodd" d="M 302.593,471.796 L 301.26,471.796 L 298.593,470.463 L 301.927,476.463 L 305.26,470.463 Z "/>
				<path id="dp_path038" fill="black" d="M 301.26,457.227 L 301.26,471.796 L 302.593,471.796 L 302.593,457.227 Z "/>
			</g>
		</g>
		<path id="dp_path039" fill="black" fill-rule="evenodd" d="M 270.208,414.303 C 270.08,414.684 270.073,415.028 270.193,415.333 C 270.3,415.645 270.463,415.923 270.679,416.168 C 270.916,416.401 271.165,416.623 271.427,416.832 C 271.677,417.043 271.912,417.237 272.135,417.42 C 271.216,417.515 270.333,417.839 269.484,418.392 C 268.617,418.932 267.993,419.745 267.613,420.833 C 267.289,421.791 267.303,422.639 267.66,423.375 C 267.988,424.148 268.703,424.544 269.805,424.567 C 271.005,424.555 272.012,424.208 272.824,423.525 C 273.636,422.859 274.209,422.031 274.545,421.043 C 274.9,419.936 274.883,418.996 274.492,418.221 C 274.109,417.429 273.547,416.805 272.803,416.349 C 271.873,415.7 271.293,415.229 271.061,414.943 C 270.932,414.789 270.86,414.656 270.844,414.544 C 270.817,414.425 270.825,414.309 270.863,414.197 C 271.035,413.66 271.477,413.381 272.193,413.357 C 272.717,413.369 273.169,413.491 273.551,413.724 C 273.929,413.969 274.245,414.249 274.5,414.567 C 274.753,414.868 274.941,415.105 275.063,415.281 C 275.168,415.476 275.264,415.572 275.352,415.572 C 275.461,415.572 275.535,415.516 275.575,415.401 C 275.668,415.125 275.541,414.58 275.196,413.767 C 275.003,413.4 274.72,413.089 274.348,412.835 C 273.975,412.581 273.489,412.448 272.892,412.436 C 272.319,412.436 271.789,412.591 271.307,412.901 C 270.787,413.211 270.42,413.679 270.208,414.303 Z M 272.179,417.923 C 273.417,417.911 273.707,418.953 273.044,421.048 C 272.807,421.779 272.46,422.453 272.003,423.071 C 271.507,423.721 270.869,424.052 270.091,424.064 C 269.543,424.064 269.179,423.809 269,423.3 C 268.808,422.813 268.879,422.063 269.213,421.048 C 269.473,420.249 269.839,419.539 270.308,418.916 C 270.795,418.276 271.419,417.945 272.179,417.923 Z "/>
		<path id="dp_path040" fill="black" fill-rule="evenodd" d="M 274.349,424.496 L 278.261,419.943 L 276.009,415.497 L 277.7,415.497 L 278.471,417.108 C 278.759,417.704 279.015,418.271 279.239,418.808 L 281.816,415.497 L 283.695,415.497 L 279.923,420.045 L 282.192,424.496 L 280.503,424.496 L 279.592,422.672 C 279.403,422.283 279.189,421.801 278.949,421.225 L 276.269,424.496 Z "/>
		<path id="dp_path041" fill="black" fill-rule="evenodd" d="M 237.167,456.825 C 237.039,457.207 237.032,457.551 237.152,457.856 C 237.259,458.168 237.421,458.445 237.637,458.689 C 237.875,458.924 238.124,459.145 238.385,459.355 C 238.636,459.565 238.871,459.76 239.093,459.943 C 238.175,460.037 237.292,460.361 236.443,460.915 C 235.576,461.455 234.952,462.268 234.572,463.356 C 234.248,464.313 234.261,465.161 234.619,465.897 C 234.947,466.671 235.661,467.067 236.764,467.089 C 237.964,467.077 238.971,466.731 239.783,466.048 C 240.595,465.38 241.168,464.553 241.504,463.565 C 241.859,462.459 241.841,461.519 241.451,460.744 C 241.068,459.952 240.505,459.328 239.761,458.872 C 238.832,458.221 238.252,457.752 238.02,457.465 C 237.891,457.312 237.819,457.179 237.803,457.067 C 237.776,456.948 237.784,456.832 237.821,456.72 C 237.993,456.183 238.436,455.904 239.152,455.88 C 239.676,455.892 240.128,456.013 240.509,456.245 C 240.888,456.492 241.204,456.772 241.459,457.089 C 241.712,457.389 241.9,457.628 242.021,457.804 C 242.127,457.999 242.223,458.095 242.311,458.095 C 242.42,458.095 242.493,458.039 242.533,457.924 C 242.627,457.648 242.5,457.103 242.155,456.289 C 241.961,455.923 241.679,455.612 241.307,455.357 C 240.933,455.104 240.448,454.971 239.851,454.959 C 239.277,454.959 238.748,455.113 238.265,455.424 C 237.745,455.733 237.379,456.201 237.167,456.825 Z M 239.137,460.445 C 240.376,460.433 240.665,461.476 240.003,463.571 C 239.765,464.301 239.419,464.976 238.961,465.593 C 238.465,466.244 237.828,466.575 237.049,466.587 C 236.501,466.587 236.137,466.332 235.959,465.823 C 235.767,465.336 235.837,464.585 236.172,463.571 C 236.432,462.772 236.797,462.061 237.267,461.439 C 237.753,460.799 238.377,460.468 239.137,460.445 Z "/>
		<path id="dp_path042" fill="black" fill-rule="evenodd" d="M 241.336,470.493 L 241.423,469.049 C 241.74,469.14 242.048,469.185 242.348,469.185 C 242.66,469.185 242.911,469.115 243.103,468.975 C 243.353,468.788 243.624,468.439 243.917,467.925 L 244.409,467.049 L 242.911,458.02 L 244.413,458.02 L 245.092,462.572 C 245.228,463.471 245.343,464.371 245.44,465.269 L 249.468,458.02 L 251.056,458.02 L 245.329,468.212 C 244.776,469.208 244.285,469.867 243.857,470.189 C 243.428,470.511 242.936,470.673 242.376,470.673 C 242.021,470.673 241.675,470.613 241.336,470.493 Z "/>
		<path id="dp_path043" fill="none" fill-rule="evenodd" stroke="black" stroke-width="0.666667" stroke-dasharray="1.6,1.6" d="M 283.068,426.759 L 305.303,453.657"/>
		<path id="dp_path044" fill="black" fill-rule="evenodd" d="M 267.643,532.357 C 267.515,532.739 267.508,533.083 267.628,533.389 C 267.735,533.701 267.897,533.979 268.113,534.223 C 268.351,534.456 268.6,534.677 268.861,534.887 C 269.112,535.097 269.347,535.292 269.569,535.475 C 268.651,535.569 267.768,535.893 266.919,536.447 C 266.052,536.987 265.428,537.8 265.048,538.888 C 264.724,539.845 264.737,540.693 265.095,541.431 C 265.423,542.203 266.137,542.599 267.24,542.621 C 268.44,542.611 269.447,542.264 270.259,541.58 C 271.071,540.913 271.644,540.085 271.98,539.097 C 272.335,537.991 272.317,537.051 271.927,536.276 C 271.544,535.485 270.981,534.861 270.237,534.404 C 269.308,533.755 268.728,533.285 268.496,532.997 C 268.367,532.844 268.295,532.712 268.279,532.599 C 268.252,532.48 268.26,532.365 268.297,532.252 C 268.469,531.715 268.912,531.436 269.628,531.413 C 270.152,531.424 270.604,531.545 270.985,531.779 C 271.364,532.024 271.68,532.304 271.935,532.621 C 272.188,532.923 272.376,533.16 272.497,533.337 C 272.603,533.531 272.699,533.627 272.787,533.627 C 272.896,533.627 272.969,533.571 273.009,533.457 C 273.103,533.181 272.976,532.635 272.631,531.821 C 272.437,531.455 272.155,531.144 271.783,530.889 C 271.409,530.636 270.924,530.503 270.327,530.491 C 269.753,530.491 269.224,530.645 268.741,530.956 C 268.221,531.265 267.855,531.733 267.643,532.357 Z M 269.613,535.977 C 270.852,535.965 271.141,537.008 270.479,539.103 C 270.241,539.833 269.895,540.508 269.437,541.125 C 268.941,541.777 268.304,542.108 267.525,542.119 C 266.977,542.119 266.613,541.865 266.435,541.355 C 266.243,540.868 266.313,540.117 266.648,539.103 C 266.908,538.304 267.273,537.593 267.743,536.971 C 268.229,536.331 268.853,536 269.613,535.977 Z "/>
		<path id="dp_path045" fill="black" fill-rule="evenodd" d="M 275.337,542.551 L 272.953,542.551 L 272.953,533.552 L 275.164,533.552 L 275.164,534.831 C 275.541,534.227 275.881,533.831 276.183,533.644 C 276.484,533.459 276.827,533.364 277.211,533.364 C 277.752,533.364 278.273,533.515 278.775,533.813 L 278.045,535.892 C 277.645,535.632 277.272,535.503 276.928,535.503 C 276.595,535.503 276.313,535.593 276.083,535.776 C 275.851,535.96 275.669,536.291 275.536,536.771 C 275.403,537.248 275.337,538.252 275.337,539.779 Z "/>
		<path id="dp_path046" fill="black" fill-rule="evenodd" d="M 292.527,535.256 L 284.336,535.256 L 284.336,533.841 L 292.527,533.841 Z M 292.527,539.027 L 284.336,539.027 L 284.336,537.611 L 292.527,537.611 Z "/>
		<path id="dp_path047" fill="black" fill-rule="evenodd" d="M 256.805,566.081 C 255.965,565.02 255.255,563.777 254.673,562.355 C 254.092,560.932 253.801,559.459 253.801,557.933 C 253.801,556.589 254.019,555.301 254.453,554.071 C 254.961,552.643 255.745,551.22 256.805,549.803 L 257.904,549.803 C 257.217,550.977 256.764,551.816 256.543,552.319 C 256.197,553.097 255.925,553.911 255.727,554.757 C 255.483,555.813 255.361,556.875 255.361,557.941 C 255.361,560.657 256.209,563.372 257.904,566.081 Z "/>
		<path id="dp_path048" fill="black" fill-rule="evenodd" d="M 263.044,552.233 C 262.916,552.615 262.909,552.959 263.029,553.265 C 263.136,553.577 263.299,553.855 263.515,554.099 C 263.752,554.332 264.001,554.553 264.263,554.763 C 264.513,554.973 264.748,555.168 264.971,555.351 C 264.052,555.445 263.169,555.769 262.32,556.323 C 261.453,556.863 260.829,557.676 260.449,558.764 C 260.125,559.721 260.139,560.569 260.496,561.307 C 260.824,562.079 261.539,562.475 262.641,562.497 C 263.841,562.487 264.848,562.14 265.66,561.456 C 266.472,560.789 267.045,559.961 267.381,558.973 C 267.736,557.867 267.719,556.927 267.328,556.152 C 266.945,555.361 266.383,554.737 265.639,554.28 C 264.709,553.631 264.129,553.161 263.897,552.873 C 263.768,552.72 263.696,552.588 263.68,552.475 C 263.653,552.356 263.661,552.241 263.699,552.128 C 263.871,551.591 264.313,551.312 265.029,551.289 C 265.553,551.3 266.005,551.421 266.387,551.655 C 266.765,551.9 267.081,552.18 267.336,552.497 C 267.589,552.799 267.777,553.036 267.899,553.213 C 268.004,553.407 268.1,553.503 268.188,553.503 C 268.297,553.503 268.371,553.447 268.411,553.333 C 268.504,553.057 268.377,552.511 268.032,551.697 C 267.839,551.331 267.556,551.02 267.184,550.765 C 266.811,550.512 266.325,550.379 265.728,550.367 C 265.155,550.367 264.625,550.521 264.143,550.832 C 263.623,551.141 263.256,551.609 263.044,552.233 Z M 265.015,555.853 C 266.253,555.841 266.543,556.884 265.88,558.979 C 265.643,559.709 265.296,560.384 264.839,561.001 C 264.343,561.653 263.705,561.984 262.927,561.995 C 262.379,561.995 262.015,561.741 261.836,561.231 C 261.644,560.744 261.715,559.993 262.049,558.979 C 262.309,558.18 262.675,557.469 263.144,556.847 C 263.631,556.207 264.255,555.876 265.015,555.853 Z "/>
		<path id="dp_path049" fill="black" fill-rule="evenodd" d="M 267.185,562.427 L 271.097,557.875 L 268.845,553.428 L 270.536,553.428 L 271.307,555.039 C 271.595,555.635 271.851,556.201 272.075,556.739 L 274.652,553.428 L 276.531,553.428 L 272.759,557.976 L 275.028,562.427 L 273.339,562.427 L 272.428,560.603 C 272.239,560.215 272.025,559.732 271.785,559.157 L 269.105,562.427 Z "/>
		<path id="dp_path050" fill="black" fill-rule="evenodd" d="M 276.841,562.427 L 277.203,560.693 L 278.936,560.693 L 278.619,562.211 C 278.429,563.115 278.133,563.777 277.732,564.199 C 277.331,564.623 276.855,564.864 276.308,564.925 L 276.452,564.257 C 277.124,564.072 277.565,563.463 277.781,562.427 Z "/>
		<path id="dp_path051" fill="black" fill-rule="evenodd" d="M 285.231,552.233 C 285.103,552.615 285.096,552.959 285.216,553.265 C 285.323,553.577 285.485,553.855 285.701,554.099 C 285.939,554.332 286.188,554.553 286.449,554.763 C 286.7,554.973 286.935,555.168 287.157,555.351 C 286.239,555.445 285.356,555.769 284.507,556.323 C 283.64,556.863 283.016,557.676 282.636,558.764 C 282.312,559.721 282.325,560.569 282.683,561.307 C 283.011,562.079 283.725,562.475 284.828,562.497 C 286.028,562.487 287.035,562.14 287.847,561.456 C 288.659,560.789 289.232,559.961 289.568,558.973 C 289.923,557.867 289.905,556.927 289.515,556.152 C 289.132,555.361 288.569,554.737 287.825,554.28 C 286.896,553.631 286.316,553.161 286.084,552.873 C 285.955,552.72 285.883,552.588 285.867,552.475 C 285.84,552.356 285.848,552.241 285.885,552.128 C 286.057,551.591 286.5,551.312 287.216,551.289 C 287.74,551.3 288.192,551.421 288.573,551.655 C 288.952,551.9 289.268,552.18 289.523,552.497 C 289.776,552.799 289.964,553.036 290.085,553.213 C 290.191,553.407 290.287,553.503 290.375,553.503 C 290.484,553.503 290.557,553.447 290.597,553.333 C 290.691,553.057 290.564,552.511 290.219,551.697 C 290.025,551.331 289.743,551.02 289.371,550.765 C 288.997,550.512 288.512,550.379 287.915,550.367 C 287.341,550.367 286.812,550.521 286.329,550.832 C 285.809,551.141 285.443,551.609 285.231,552.233 Z M 287.201,555.853 C 288.44,555.841 288.729,556.884 288.067,558.979 C 287.829,559.709 287.483,560.384 287.025,561.001 C 286.529,561.653 285.892,561.984 285.113,561.995 C 284.565,561.995 284.201,561.741 284.023,561.231 C 283.831,560.744 283.901,559.993 284.236,558.979 C 284.496,558.18 284.861,557.469 285.331,556.847 C 285.817,556.207 286.441,555.876 287.201,555.853 Z "/>
		<path id="dp_path052" fill="black" fill-rule="evenodd" d="M 289.4,565.903 L 289.487,564.457 C 289.804,564.549 290.112,564.593 290.412,564.593 C 290.724,564.593 290.975,564.523 291.167,564.383 C 291.417,564.196 291.688,563.847 291.981,563.335 L 292.473,562.457 L 290.975,553.428 L 292.477,553.428 L 293.156,557.981 C 293.292,558.88 293.407,559.779 293.504,560.677 L 297.532,553.428 L 299.12,553.428 L 293.393,563.62 C 292.84,564.617 292.349,565.276 291.921,565.597 C 291.492,565.92 291,566.081 290.44,566.081 C 290.085,566.081 289.739,566.023 289.4,565.903 Z "/>
		<path id="dp_path053" fill="black" fill-rule="evenodd" d="M 300.241,566.081 L 299.144,566.081 C 300.839,563.372 301.687,560.657 301.687,557.941 C 301.687,556.88 301.565,555.827 301.321,554.783 C 301.128,553.935 300.859,553.123 300.513,552.343 C 300.292,551.835 299.836,550.988 299.144,549.803 L 300.241,549.803 C 301.303,551.22 302.087,552.643 302.595,554.071 C 303.029,555.301 303.247,556.589 303.247,557.933 C 303.247,559.459 302.955,560.932 302.371,562.355 C 301.787,563.777 301.077,565.02 300.241,566.081 Z "/>
		<path id="dp_path054" fill="none" fill-rule="evenodd" stroke="black" stroke-width="0.666667" stroke-dasharray="1.6,1.6" d="M 252.747,462.759 L 298.801,466.117"/>
		<path id="dp_path055" fill="none" fill-rule="evenodd" stroke="black" stroke-width="0.666667" stroke-dasharray="1.6,1.6" d="M 314.553,476.167 L 296.315,522.579"/>
	</g>
</svg>